<svg width="135" height="20" viewBox="0 0 135 20" fill="none" xmlns="http://www.w3.org/2000/svg">
<path d="M11.45 20H1.58C1.16 20 0.95 19.79 0.95 19.37V1.34C0.95 0.919999 1.16 0.71 1.58 0.71H4.13C4.55 0.71 4.76 0.919999 4.76 1.34V16.34C4.76 16.56 4.88 16.67 5.12 16.67H11.45C11.85 16.67 12.05 16.89 12.05 17.33V19.37C12.05 19.79 11.85 20 11.45 20ZM21.1766 16.7H23.3066C23.9466 16.7 24.3966 16.57 24.6566 16.31C24.9366 16.03 25.0766 15.57 25.0766 14.93V5.78C25.0766 5.14 24.9366 4.69 24.6566 4.43C24.3966 4.15 23.9466 4.01 23.3066 4.01H21.1766C20.5366 4.01 20.0866 4.15 19.8266 4.43C19.5666 4.69 19.4366 5.14 19.4366 5.78V14.93C19.4366 15.57 19.5666 16.03 19.8266 16.31C20.0866 16.57 20.5366 16.7 21.1766 16.7ZM23.9366 20H20.5766C18.9966 20 17.7766 19.58 16.9166 18.74C16.0566 17.9 15.6266 16.69 15.6266 15.11V5.6C15.6266 4.02 16.0566 2.81 16.9166 1.97C17.7766 1.13 18.9966 0.71 20.5766 0.71H23.9366C25.5166 0.71 26.7366 1.13 27.5966 1.97C28.4566 2.81 28.8866 4.02 28.8866 5.6V15.11C28.8866 16.69 28.4566 17.9 27.5966 18.74C26.7366 19.58 25.5166 20 23.9366 20ZM41.8093 20H38.6293C37.0493 20 35.8293 19.58 34.9693 18.74C34.1093 17.9 33.6793 16.69 33.6793 15.11V5.6C33.6793 4.02 34.1093 2.81 34.9693 1.97C35.8293 1.13 37.0493 0.71 38.6293 0.71H41.8093C43.3693 0.71 44.5793 1.14 45.4393 2C46.2993 2.84 46.7293 4.04 46.7293 5.6V6.5C46.7293 6.94 46.5193 7.16 46.0993 7.16H43.5493C43.1293 7.16 42.9193 6.94 42.9193 6.5V5.78C42.9193 5.14 42.7893 4.69 42.5293 4.43C42.2693 4.15 41.8193 4.01 41.1793 4.01H39.2293C38.6093 4.01 38.1593 4.15 37.8793 4.43C37.6193 4.69 37.4893 5.14 37.4893 5.78V14.93C37.4893 15.57 37.6193 16.03 37.8793 16.31C38.1593 16.57 38.6093 16.7 39.2293 16.7H41.1793C41.8193 16.7 42.2693 16.57 42.5293 16.31C42.7893 16.03 42.9193 15.57 42.9193 14.93V13.04C42.9193 12.82 42.8093 12.71 42.5893 12.71H40.7893C40.3693 12.71 40.1593 12.5 40.1593 12.08V10.04C40.1593 9.62 40.3693 9.41 40.7893 9.41H46.0393C46.4993 9.41 46.7293 9.64 46.7293 10.1V15.11C46.7293 16.67 46.2993 17.88 45.4393 18.74C44.5793 19.58 43.3693 20 41.8093 20ZM57.077 16.7H59.207C59.847 16.7 60.297 16.57 60.557 16.31C60.837 16.03 60.977 15.57 60.977 14.93V5.78C60.977 5.14 60.837 4.69 60.557 4.43C60.297 4.15 59.847 4.01 59.207 4.01H57.077C56.437 4.01 55.987 4.15 55.727 4.43C55.467 4.69 55.337 5.14 55.337 5.78V14.93C55.337 15.57 55.467 16.03 55.727 16.31C55.987 16.57 56.437 16.7 57.077 16.7ZM59.837 20H56.477C54.897 20 53.677 19.58 52.817 18.74C51.957 17.9 51.527 16.69 51.527 15.11V5.6C51.527 4.02 51.957 2.81 52.817 1.97C53.677 1.13 54.897 0.71 56.477 0.71H59.837C61.417 0.71 62.637 1.13 63.497 1.97C64.357 2.81 64.787 4.02 64.787 5.6V15.11C64.787 16.69 64.357 17.9 63.497 18.74C62.637 19.58 61.417 20 59.837 20Z" fill="#252A34"/>
<path d="M71.8897 20H69.0097C68.6497 20 68.5297 19.79 68.6497 19.37L73.3897 1.34C73.5297 0.919999 73.8297 0.71 74.2897 0.71H78.2797C78.7797 0.71 79.0797 0.919999 79.1797 1.34L83.9197 19.37C84.0397 19.79 83.9197 20 83.5597 20H80.6797C80.4597 20 80.3097 19.96 80.2297 19.88C80.1497 19.78 80.0897 19.61 80.0497 19.37L79.2097 16.07H73.3597L72.5197 19.37C72.4797 19.61 72.4097 19.78 72.3097 19.88C72.2297 19.96 72.0897 20 71.8897 20ZM76.2397 4.34L74.0797 13.01H78.5197L76.3597 4.34H76.2397ZM97.9489 0.71H100.469C100.909 0.71 101.129 0.91 101.129 1.31V15.11C101.129 16.67 100.689 17.88 99.8089 18.74C98.9489 19.58 97.7389 20 96.1789 20H92.8789C91.2989 20 90.0789 19.58 89.2189 18.74C88.3589 17.9 87.9289 16.69 87.9289 15.11V1.34C87.9289 0.919999 88.1389 0.71 88.5589 0.71H91.1089C91.5289 0.71 91.7389 0.919999 91.7389 1.34V14.93C91.7389 15.57 91.8689 16.03 92.1289 16.31C92.4089 16.57 92.8589 16.7 93.4789 16.7H95.5489C96.1889 16.7 96.6389 16.57 96.8989 16.31C97.1789 16.03 97.3189 15.57 97.3189 14.93V1.34C97.3189 0.919999 97.5289 0.71 97.9489 0.71ZM112.336 20H109.816C109.376 20 109.156 19.79 109.156 19.37V4.34C109.156 4.12 109.046 4.01 108.826 4.01H105.406C104.986 4.01 104.776 3.8 104.776 3.38V1.34C104.776 0.919999 104.986 0.71 105.406 0.71H116.746C117.166 0.71 117.376 0.919999 117.376 1.34V3.38C117.376 3.8 117.166 4.01 116.746 4.01H113.326C113.086 4.01 112.966 4.12 112.966 4.34V19.37C112.966 19.79 112.756 20 112.336 20ZM126.417 16.7H128.547C129.187 16.7 129.637 16.57 129.897 16.31C130.177 16.03 130.317 15.57 130.317 14.93V5.78C130.317 5.14 130.177 4.69 129.897 4.43C129.637 4.15 129.187 4.01 128.547 4.01H126.417C125.777 4.01 125.327 4.15 125.067 4.43C124.807 4.69 124.677 5.14 124.677 5.78V14.93C124.677 15.57 124.807 16.03 125.067 16.31C125.327 16.57 125.777 16.7 126.417 16.7ZM129.177 20H125.817C124.237 20 123.017 19.58 122.157 18.74C121.297 17.9 120.867 16.69 120.867 15.11V5.6C120.867 4.02 121.297 2.81 122.157 1.97C123.017 1.13 124.237 0.71 125.817 0.71H129.177C130.757 0.71 131.977 1.13 132.837 1.97C133.697 2.81 134.127 4.02 134.127 5.6V15.11C134.127 16.69 133.697 17.9 132.837 18.74C131.977 19.58 130.757 20 129.177 20Z" fill="#FF2E63"/>
</svg>
