<svg width="250" height="181" viewBox="0 0 250 181" fill="none" xmlns="http://www.w3.org/2000/svg">
<path d="M5.25781 111H3.92969V100.758H0.3125V99.5781H8.875V100.758H5.25781V111ZM11.7031 111H10.4062V102.438H11.7031V111ZM10.2969 100.117C10.2969 99.8203 10.3698 99.6042 10.5156 99.4688C10.6615 99.3281 10.8438 99.2578 11.0625 99.2578C11.2708 99.2578 11.4505 99.3281 11.6016 99.4688C11.7526 99.6094 11.8281 99.8255 11.8281 100.117C11.8281 100.409 11.7526 100.628 11.6016 100.773C11.4505 100.914 11.2708 100.984 11.0625 100.984C10.8438 100.984 10.6615 100.914 10.5156 100.773C10.3698 100.628 10.2969 100.409 10.2969 100.117ZM17.875 111.156C16.6354 111.156 15.6745 110.776 14.9922 110.016C14.3151 109.25 13.9766 108.169 13.9766 106.773C13.9766 105.341 14.3203 104.234 15.0078 103.453C15.7005 102.672 16.6849 102.281 17.9609 102.281C18.3724 102.281 18.7839 102.326 19.1953 102.414C19.6068 102.503 19.9297 102.607 20.1641 102.727L19.7656 103.828C19.4792 103.714 19.1667 103.62 18.8281 103.547C18.4896 103.469 18.1901 103.43 17.9297 103.43C16.1901 103.43 15.3203 104.539 15.3203 106.758C15.3203 107.81 15.5312 108.617 15.9531 109.18C16.3802 109.742 17.0104 110.023 17.8438 110.023C18.5573 110.023 19.2891 109.87 20.0391 109.562V110.711C19.4661 111.008 18.7448 111.156 17.875 111.156ZM23.3594 106.617C23.5833 106.299 23.9245 105.883 24.3828 105.367L27.1484 102.438H28.6875L25.2188 106.086L28.9297 111H27.3594L24.3359 106.953L23.3594 107.797V111H22.0781V98.8438H23.3594V105.289C23.3594 105.576 23.3385 106.018 23.2969 106.617H23.3594ZM34.1016 111.156C32.8359 111.156 31.8359 110.771 31.1016 110C30.3724 109.229 30.0078 108.159 30.0078 106.789C30.0078 105.409 30.3464 104.312 31.0234 103.5C31.7057 102.688 32.6198 102.281 33.7656 102.281C34.8385 102.281 35.6875 102.635 36.3125 103.344C36.9375 104.047 37.25 104.977 37.25 106.133V106.953H31.3516C31.3776 107.958 31.6302 108.721 32.1094 109.242C32.5938 109.763 33.2734 110.023 34.1484 110.023C35.0703 110.023 35.9818 109.831 36.8828 109.445V110.602C36.4245 110.799 35.9896 110.94 35.5781 111.023C35.1719 111.112 34.6797 111.156 34.1016 111.156ZM33.75 103.367C33.0625 103.367 32.513 103.591 32.1016 104.039C31.6953 104.487 31.4557 105.107 31.3828 105.898H35.8594C35.8594 105.081 35.6771 104.456 35.3125 104.023C34.9479 103.586 34.4271 103.367 33.75 103.367ZM42.2344 110.086C42.4635 110.086 42.6849 110.07 42.8984 110.039C43.112 110.003 43.2812 109.966 43.4062 109.93V110.922C43.2656 110.99 43.0573 111.044 42.7812 111.086C42.5104 111.133 42.2656 111.156 42.0469 111.156C40.3906 111.156 39.5625 110.284 39.5625 108.539V103.445H38.3359V102.82L39.5625 102.281L40.1094 100.453H40.8594V102.438H43.3438V103.445H40.8594V108.484C40.8594 109 40.9818 109.396 41.2266 109.672C41.4714 109.948 41.8073 110.086 42.2344 110.086ZM50.6484 108.664C50.6484 109.461 50.3516 110.076 49.7578 110.508C49.1641 110.94 48.3307 111.156 47.2578 111.156C46.1224 111.156 45.237 110.977 44.6016 110.617V109.414C45.013 109.622 45.4531 109.786 45.9219 109.906C46.3958 110.026 46.8516 110.086 47.2891 110.086C47.9661 110.086 48.487 109.979 48.8516 109.766C49.2161 109.547 49.3984 109.216 49.3984 108.773C49.3984 108.44 49.2526 108.156 48.9609 107.922C48.6745 107.682 48.112 107.401 47.2734 107.078C46.4766 106.781 45.9089 106.523 45.5703 106.305C45.237 106.081 44.987 105.828 44.8203 105.547C44.6589 105.266 44.5781 104.93 44.5781 104.539C44.5781 103.841 44.862 103.292 45.4297 102.891C45.9974 102.484 46.776 102.281 47.7656 102.281C48.6875 102.281 49.5885 102.469 50.4688 102.844L50.0078 103.898C49.1484 103.544 48.3698 103.367 47.6719 103.367C47.0573 103.367 46.5938 103.464 46.2812 103.656C45.9688 103.849 45.8125 104.115 45.8125 104.453C45.8125 104.682 45.8698 104.878 45.9844 105.039C46.1042 105.201 46.2943 105.354 46.5547 105.5C46.8151 105.646 47.3151 105.857 48.0547 106.133C49.0703 106.503 49.7552 106.875 50.1094 107.25C50.4688 107.625 50.6484 108.096 50.6484 108.664ZM60.7812 103.445H58.6016V111H57.3047V103.445H55.7734V102.859L57.3047 102.391V101.914C57.3047 99.8099 58.224 98.7578 60.0625 98.7578C60.5156 98.7578 61.0469 98.849 61.6562 99.0312L61.3203 100.07C60.8203 99.9089 60.3932 99.8281 60.0391 99.8281C59.5495 99.8281 59.1875 99.9922 58.9531 100.32C58.7188 100.643 58.6016 101.164 58.6016 101.883V102.438H60.7812V103.445ZM69.7344 106.711C69.7344 108.107 69.3828 109.198 68.6797 109.984C67.9766 110.766 67.0052 111.156 65.7656 111.156C65 111.156 64.3203 110.977 63.7266 110.617C63.1328 110.258 62.6745 109.742 62.3516 109.07C62.0286 108.398 61.8672 107.612 61.8672 106.711C61.8672 105.315 62.2161 104.229 62.9141 103.453C63.612 102.672 64.5807 102.281 65.8203 102.281C67.0182 102.281 67.9688 102.68 68.6719 103.477C69.3802 104.273 69.7344 105.352 69.7344 106.711ZM63.2109 106.711C63.2109 107.805 63.4297 108.638 63.8672 109.211C64.3047 109.784 64.9479 110.07 65.7969 110.07C66.6458 110.07 67.2891 109.786 67.7266 109.219C68.1693 108.646 68.3906 107.81 68.3906 106.711C68.3906 105.622 68.1693 104.797 67.7266 104.234C67.2891 103.667 66.6406 103.383 65.7812 103.383C64.9323 103.383 64.2917 103.661 63.8594 104.219C63.4271 104.776 63.2109 105.607 63.2109 106.711ZM75.9219 102.281C76.3021 102.281 76.6432 102.312 76.9453 102.375L76.7656 103.578C76.4115 103.5 76.099 103.461 75.8281 103.461C75.1354 103.461 74.5417 103.742 74.0469 104.305C73.5573 104.867 73.3125 105.568 73.3125 106.406V111H72.0156V102.438H73.0859L73.2344 104.023H73.2969C73.6146 103.466 73.9974 103.036 74.4453 102.734C74.8932 102.432 75.3854 102.281 75.9219 102.281ZM87.9688 111L87.7109 109.781H87.6484C87.2214 110.318 86.7943 110.682 86.3672 110.875C85.9453 111.062 85.4167 111.156 84.7812 111.156C83.9323 111.156 83.2656 110.938 82.7812 110.5C82.3021 110.062 82.0625 109.44 82.0625 108.633C82.0625 106.904 83.4453 105.997 86.2109 105.914L87.6641 105.867V105.336C87.6641 104.664 87.5182 104.169 87.2266 103.852C86.9401 103.529 86.4792 103.367 85.8438 103.367C85.1302 103.367 84.3229 103.586 83.4219 104.023L83.0234 103.031C83.4453 102.802 83.9062 102.622 84.4062 102.492C84.9115 102.362 85.4167 102.297 85.9219 102.297C86.9427 102.297 87.6979 102.523 88.1875 102.977C88.6823 103.43 88.9297 104.156 88.9297 105.156V111H87.9688ZM85.0391 110.086C85.8464 110.086 86.4792 109.865 86.9375 109.422C87.401 108.979 87.6328 108.359 87.6328 107.562V106.789L86.3359 106.844C85.3047 106.88 84.5599 107.042 84.1016 107.328C83.6484 107.609 83.4219 108.049 83.4219 108.648C83.4219 109.117 83.5625 109.474 83.8438 109.719C84.1302 109.964 84.5286 110.086 85.0391 110.086ZM92.9062 111H91.6094V98.8438H92.9062V111ZM96.9531 111H95.6562V98.8438H96.9531V111ZM107.281 111.156C106.042 111.156 105.081 110.776 104.398 110.016C103.721 109.25 103.383 108.169 103.383 106.773C103.383 105.341 103.727 104.234 104.414 103.453C105.107 102.672 106.091 102.281 107.367 102.281C107.779 102.281 108.19 102.326 108.602 102.414C109.013 102.503 109.336 102.607 109.57 102.727L109.172 103.828C108.885 103.714 108.573 103.62 108.234 103.547C107.896 103.469 107.596 103.43 107.336 103.43C105.596 103.43 104.727 104.539 104.727 106.758C104.727 107.81 104.938 108.617 105.359 109.18C105.786 109.742 106.417 110.023 107.25 110.023C107.964 110.023 108.695 109.87 109.445 109.562V110.711C108.872 111.008 108.151 111.156 107.281 111.156ZM118.875 106.711C118.875 108.107 118.523 109.198 117.82 109.984C117.117 110.766 116.146 111.156 114.906 111.156C114.141 111.156 113.461 110.977 112.867 110.617C112.273 110.258 111.815 109.742 111.492 109.07C111.169 108.398 111.008 107.612 111.008 106.711C111.008 105.315 111.357 104.229 112.055 103.453C112.753 102.672 113.721 102.281 114.961 102.281C116.159 102.281 117.109 102.68 117.812 103.477C118.521 104.273 118.875 105.352 118.875 106.711ZM112.352 106.711C112.352 107.805 112.57 108.638 113.008 109.211C113.445 109.784 114.089 110.07 114.938 110.07C115.786 110.07 116.43 109.786 116.867 109.219C117.31 108.646 117.531 107.81 117.531 106.711C117.531 105.622 117.31 104.797 116.867 104.234C116.43 103.667 115.781 103.383 114.922 103.383C114.073 103.383 113.432 103.661 113 104.219C112.568 104.776 112.352 105.607 112.352 106.711ZM125.062 102.281C125.443 102.281 125.784 102.312 126.086 102.375L125.906 103.578C125.552 103.5 125.24 103.461 124.969 103.461C124.276 103.461 123.682 103.742 123.188 104.305C122.698 104.867 122.453 105.568 122.453 106.406V111H121.156V102.438H122.227L122.375 104.023H122.438C122.755 103.466 123.138 103.036 123.586 102.734C124.034 102.432 124.526 102.281 125.062 102.281ZM131.594 102.281C131.974 102.281 132.315 102.312 132.617 102.375L132.438 103.578C132.083 103.5 131.771 103.461 131.5 103.461C130.807 103.461 130.214 103.742 129.719 104.305C129.229 104.867 128.984 105.568 128.984 106.406V111H127.688V102.438H128.758L128.906 104.023H128.969C129.286 103.466 129.669 103.036 130.117 102.734C130.565 102.432 131.057 102.281 131.594 102.281ZM137.836 111.156C136.57 111.156 135.57 110.771 134.836 110C134.107 109.229 133.742 108.159 133.742 106.789C133.742 105.409 134.081 104.312 134.758 103.5C135.44 102.688 136.354 102.281 137.5 102.281C138.573 102.281 139.422 102.635 140.047 103.344C140.672 104.047 140.984 104.977 140.984 106.133V106.953H135.086C135.112 107.958 135.365 108.721 135.844 109.242C136.328 109.763 137.008 110.023 137.883 110.023C138.805 110.023 139.716 109.831 140.617 109.445V110.602C140.159 110.799 139.724 110.94 139.312 111.023C138.906 111.112 138.414 111.156 137.836 111.156ZM137.484 103.367C136.797 103.367 136.247 103.591 135.836 104.039C135.43 104.487 135.19 105.107 135.117 105.898H139.594C139.594 105.081 139.411 104.456 139.047 104.023C138.682 103.586 138.161 103.367 137.484 103.367ZM146.625 111.156C145.385 111.156 144.424 110.776 143.742 110.016C143.065 109.25 142.727 108.169 142.727 106.773C142.727 105.341 143.07 104.234 143.758 103.453C144.451 102.672 145.435 102.281 146.711 102.281C147.122 102.281 147.534 102.326 147.945 102.414C148.357 102.503 148.68 102.607 148.914 102.727L148.516 103.828C148.229 103.714 147.917 103.62 147.578 103.547C147.24 103.469 146.94 103.43 146.68 103.43C144.94 103.43 144.07 104.539 144.07 106.758C144.07 107.81 144.281 108.617 144.703 109.18C145.13 109.742 145.76 110.023 146.594 110.023C147.307 110.023 148.039 109.87 148.789 109.562V110.711C148.216 111.008 147.495 111.156 146.625 111.156ZM153.594 110.086C153.823 110.086 154.044 110.07 154.258 110.039C154.471 110.003 154.641 109.966 154.766 109.93V110.922C154.625 110.99 154.417 111.044 154.141 111.086C153.87 111.133 153.625 111.156 153.406 111.156C151.75 111.156 150.922 110.284 150.922 108.539V103.445H149.695V102.82L150.922 102.281L151.469 100.453H152.219V102.438H154.703V103.445H152.219V108.484C152.219 109 152.341 109.396 152.586 109.672C152.831 109.948 153.167 110.086 153.594 110.086ZM165.906 111L165.648 109.781H165.586C165.159 110.318 164.732 110.682 164.305 110.875C163.883 111.062 163.354 111.156 162.719 111.156C161.87 111.156 161.203 110.938 160.719 110.5C160.24 110.062 160 109.44 160 108.633C160 106.904 161.383 105.997 164.148 105.914L165.602 105.867V105.336C165.602 104.664 165.456 104.169 165.164 103.852C164.878 103.529 164.417 103.367 163.781 103.367C163.068 103.367 162.26 103.586 161.359 104.023L160.961 103.031C161.383 102.802 161.844 102.622 162.344 102.492C162.849 102.362 163.354 102.297 163.859 102.297C164.88 102.297 165.635 102.523 166.125 102.977C166.62 103.43 166.867 104.156 166.867 105.156V111H165.906ZM162.977 110.086C163.784 110.086 164.417 109.865 164.875 109.422C165.339 108.979 165.57 108.359 165.57 107.562V106.789L164.273 106.844C163.242 106.88 162.497 107.042 162.039 107.328C161.586 107.609 161.359 108.049 161.359 108.648C161.359 109.117 161.5 109.474 161.781 109.719C162.068 109.964 162.466 110.086 162.977 110.086ZM175.406 111V105.461C175.406 104.763 175.247 104.242 174.93 103.898C174.612 103.555 174.115 103.383 173.438 103.383C172.542 103.383 171.885 103.625 171.469 104.109C171.052 104.594 170.844 105.393 170.844 106.508V111H169.547V102.438H170.602L170.812 103.609H170.875C171.141 103.188 171.513 102.862 171.992 102.633C172.471 102.398 173.005 102.281 173.594 102.281C174.625 102.281 175.401 102.531 175.922 103.031C176.443 103.526 176.703 104.32 176.703 105.414V111H175.406ZM184.898 108.664C184.898 109.461 184.602 110.076 184.008 110.508C183.414 110.94 182.581 111.156 181.508 111.156C180.372 111.156 179.487 110.977 178.852 110.617V109.414C179.263 109.622 179.703 109.786 180.172 109.906C180.646 110.026 181.102 110.086 181.539 110.086C182.216 110.086 182.737 109.979 183.102 109.766C183.466 109.547 183.648 109.216 183.648 108.773C183.648 108.44 183.503 108.156 183.211 107.922C182.924 107.682 182.362 107.401 181.523 107.078C180.727 106.781 180.159 106.523 179.82 106.305C179.487 106.081 179.237 105.828 179.07 105.547C178.909 105.266 178.828 104.93 178.828 104.539C178.828 103.841 179.112 103.292 179.68 102.891C180.247 102.484 181.026 102.281 182.016 102.281C182.938 102.281 183.839 102.469 184.719 102.844L184.258 103.898C183.398 103.544 182.62 103.367 181.922 103.367C181.307 103.367 180.844 103.464 180.531 103.656C180.219 103.849 180.062 104.115 180.062 104.453C180.062 104.682 180.12 104.878 180.234 105.039C180.354 105.201 180.544 105.354 180.805 105.5C181.065 105.646 181.565 105.857 182.305 106.133C183.32 106.503 184.005 106.875 184.359 107.25C184.719 107.625 184.898 108.096 184.898 108.664ZM194.008 111L192.438 105.977C192.339 105.669 192.154 104.971 191.883 103.883H191.82C191.612 104.794 191.43 105.497 191.273 105.992L189.656 111H188.156L185.82 102.438H187.18C187.732 104.589 188.151 106.227 188.438 107.352C188.729 108.477 188.896 109.234 188.938 109.625H189C189.057 109.328 189.148 108.945 189.273 108.477C189.404 108.003 189.516 107.628 189.609 107.352L191.18 102.438H192.586L194.117 107.352C194.409 108.247 194.607 109 194.711 109.609H194.773C194.794 109.422 194.849 109.133 194.938 108.742C195.031 108.352 195.576 106.25 196.57 102.438H197.914L195.547 111H194.008ZM203.086 111.156C201.82 111.156 200.82 110.771 200.086 110C199.357 109.229 198.992 108.159 198.992 106.789C198.992 105.409 199.331 104.312 200.008 103.5C200.69 102.688 201.604 102.281 202.75 102.281C203.823 102.281 204.672 102.635 205.297 103.344C205.922 104.047 206.234 104.977 206.234 106.133V106.953H200.336C200.362 107.958 200.615 108.721 201.094 109.242C201.578 109.763 202.258 110.023 203.133 110.023C204.055 110.023 204.966 109.831 205.867 109.445V110.602C205.409 110.799 204.974 110.94 204.562 111.023C204.156 111.112 203.664 111.156 203.086 111.156ZM202.734 103.367C202.047 103.367 201.497 103.591 201.086 104.039C200.68 104.487 200.44 105.107 200.367 105.898H204.844C204.844 105.081 204.661 104.456 204.297 104.023C203.932 103.586 203.411 103.367 202.734 103.367ZM212.359 102.281C212.74 102.281 213.081 102.312 213.383 102.375L213.203 103.578C212.849 103.5 212.536 103.461 212.266 103.461C211.573 103.461 210.979 103.742 210.484 104.305C209.995 104.867 209.75 105.568 209.75 106.406V111H208.453V102.438H209.523L209.672 104.023H209.734C210.052 103.466 210.435 103.036 210.883 102.734C211.331 102.432 211.823 102.281 212.359 102.281ZM220.508 108.664C220.508 109.461 220.211 110.076 219.617 110.508C219.023 110.94 218.19 111.156 217.117 111.156C215.982 111.156 215.096 110.977 214.461 110.617V109.414C214.872 109.622 215.312 109.786 215.781 109.906C216.255 110.026 216.711 110.086 217.148 110.086C217.826 110.086 218.346 109.979 218.711 109.766C219.076 109.547 219.258 109.216 219.258 108.773C219.258 108.44 219.112 108.156 218.82 107.922C218.534 107.682 217.971 107.401 217.133 107.078C216.336 106.781 215.768 106.523 215.43 106.305C215.096 106.081 214.846 105.828 214.68 105.547C214.518 105.266 214.438 104.93 214.438 104.539C214.438 103.841 214.721 103.292 215.289 102.891C215.857 102.484 216.635 102.281 217.625 102.281C218.547 102.281 219.448 102.469 220.328 102.844L219.867 103.898C219.008 103.544 218.229 103.367 217.531 103.367C216.917 103.367 216.453 103.464 216.141 103.656C215.828 103.849 215.672 104.115 215.672 104.453C215.672 104.682 215.729 104.878 215.844 105.039C215.964 105.201 216.154 105.354 216.414 105.5C216.674 105.646 217.174 105.857 217.914 106.133C218.93 106.503 219.615 106.875 219.969 107.25C220.328 107.625 220.508 108.096 220.508 108.664ZM232.047 111L231.789 109.781H231.727C231.299 110.318 230.872 110.682 230.445 110.875C230.023 111.062 229.495 111.156 228.859 111.156C228.01 111.156 227.344 110.938 226.859 110.5C226.38 110.062 226.141 109.44 226.141 108.633C226.141 106.904 227.523 105.997 230.289 105.914L231.742 105.867V105.336C231.742 104.664 231.596 104.169 231.305 103.852C231.018 103.529 230.557 103.367 229.922 103.367C229.208 103.367 228.401 103.586 227.5 104.023L227.102 103.031C227.523 102.802 227.984 102.622 228.484 102.492C228.99 102.362 229.495 102.297 230 102.297C231.021 102.297 231.776 102.523 232.266 102.977C232.76 103.43 233.008 104.156 233.008 105.156V111H232.047ZM229.117 110.086C229.924 110.086 230.557 109.865 231.016 109.422C231.479 108.979 231.711 108.359 231.711 107.562V106.789L230.414 106.844C229.383 106.88 228.638 107.042 228.18 107.328C227.727 107.609 227.5 108.049 227.5 108.648C227.5 109.117 227.641 109.474 227.922 109.719C228.208 109.964 228.607 110.086 229.117 110.086ZM239.594 102.281C239.974 102.281 240.315 102.312 240.617 102.375L240.438 103.578C240.083 103.5 239.771 103.461 239.5 103.461C238.807 103.461 238.214 103.742 237.719 104.305C237.229 104.867 236.984 105.568 236.984 106.406V111H235.688V102.438H236.758L236.906 104.023H236.969C237.286 103.466 237.669 103.036 238.117 102.734C238.565 102.432 239.057 102.281 239.594 102.281ZM245.836 111.156C244.57 111.156 243.57 110.771 242.836 110C242.107 109.229 241.742 108.159 241.742 106.789C241.742 105.409 242.081 104.312 242.758 103.5C243.44 102.688 244.354 102.281 245.5 102.281C246.573 102.281 247.422 102.635 248.047 103.344C248.672 104.047 248.984 104.977 248.984 106.133V106.953H243.086C243.112 107.958 243.365 108.721 243.844 109.242C244.328 109.763 245.008 110.023 245.883 110.023C246.805 110.023 247.716 109.831 248.617 109.445V110.602C248.159 110.799 247.724 110.94 247.312 111.023C246.906 111.112 246.414 111.156 245.836 111.156ZM245.484 103.367C244.797 103.367 244.247 103.591 243.836 104.039C243.43 104.487 243.19 105.107 243.117 105.898H247.594C247.594 105.081 247.411 104.456 247.047 104.023C246.682 103.586 246.161 103.367 245.484 103.367ZM8.9375 133.156C7.67188 133.156 6.67188 132.771 5.9375 132C5.20833 131.229 4.84375 130.159 4.84375 128.789C4.84375 127.409 5.18229 126.312 5.85938 125.5C6.54167 124.688 7.45573 124.281 8.60156 124.281C9.67448 124.281 10.5234 124.635 11.1484 125.344C11.7734 126.047 12.0859 126.977 12.0859 128.133V128.953H6.1875C6.21354 129.958 6.46615 130.721 6.94531 131.242C7.42969 131.763 8.10938 132.023 8.98438 132.023C9.90625 132.023 10.8177 131.831 11.7188 131.445V132.602C11.2604 132.799 10.8255 132.94 10.4141 133.023C10.0078 133.112 9.51562 133.156 8.9375 133.156ZM8.58594 125.367C7.89844 125.367 7.34896 125.591 6.9375 126.039C6.53125 126.487 6.29167 127.107 6.21875 127.898H10.6953C10.6953 127.081 10.513 126.456 10.1484 126.023C9.78385 125.586 9.26302 125.367 8.58594 125.367ZM20.1641 133V127.461C20.1641 126.763 20.0052 126.242 19.6875 125.898C19.3698 125.555 18.8724 125.383 18.1953 125.383C17.2995 125.383 16.6432 125.625 16.2266 126.109C15.8099 126.594 15.6016 127.393 15.6016 128.508V133H14.3047V124.438H15.3594L15.5703 125.609H15.6328C15.8984 125.188 16.2708 124.862 16.75 124.633C17.2292 124.398 17.763 124.281 18.3516 124.281C19.3828 124.281 20.1589 124.531 20.6797 125.031C21.2005 125.526 21.4609 126.32 21.4609 127.414V133H20.1641ZM26.8984 132.086C27.1276 132.086 27.349 132.07 27.5625 132.039C27.776 132.003 27.9453 131.966 28.0703 131.93V132.922C27.9297 132.99 27.7214 133.044 27.4453 133.086C27.1745 133.133 26.9297 133.156 26.7109 133.156C25.0547 133.156 24.2266 132.284 24.2266 130.539V125.445H23V124.82L24.2266 124.281L24.7734 122.453H25.5234V124.438H28.0078V125.445H25.5234V130.484C25.5234 131 25.6458 131.396 25.8906 131.672C26.1354 131.948 26.4714 132.086 26.8984 132.086ZM33.4062 133.156C32.1406 133.156 31.1406 132.771 30.4062 132C29.6771 131.229 29.3125 130.159 29.3125 128.789C29.3125 127.409 29.651 126.312 30.3281 125.5C31.0104 124.688 31.9245 124.281 33.0703 124.281C34.1432 124.281 34.9922 124.635 35.6172 125.344C36.2422 126.047 36.5547 126.977 36.5547 128.133V128.953H30.6562C30.6823 129.958 30.9349 130.721 31.4141 131.242C31.8984 131.763 32.5781 132.023 33.4531 132.023C34.375 132.023 35.2865 131.831 36.1875 131.445V132.602C35.7292 132.799 35.2943 132.94 34.8828 133.023C34.4766 133.112 33.9844 133.156 33.4062 133.156ZM33.0547 125.367C32.3672 125.367 31.8177 125.591 31.4062 126.039C31 126.487 30.7604 127.107 30.6875 127.898H35.1641C35.1641 127.081 34.9818 126.456 34.6172 126.023C34.2526 125.586 33.7318 125.367 33.0547 125.367ZM42.6797 124.281C43.0599 124.281 43.401 124.312 43.7031 124.375L43.5234 125.578C43.1693 125.5 42.8568 125.461 42.5859 125.461C41.8932 125.461 41.2995 125.742 40.8047 126.305C40.3151 126.867 40.0703 127.568 40.0703 128.406V133H38.7734V124.438H39.8438L39.9922 126.023H40.0547C40.3724 125.466 40.7552 125.036 41.2031 124.734C41.651 124.432 42.1432 124.281 42.6797 124.281ZM48.9219 133.156C47.6562 133.156 46.6562 132.771 45.9219 132C45.1927 131.229 44.8281 130.159 44.8281 128.789C44.8281 127.409 45.1667 126.312 45.8438 125.5C46.526 124.688 47.4401 124.281 48.5859 124.281C49.6589 124.281 50.5078 124.635 51.1328 125.344C51.7578 126.047 52.0703 126.977 52.0703 128.133V128.953H46.1719C46.1979 129.958 46.4505 130.721 46.9297 131.242C47.4141 131.763 48.0938 132.023 48.9688 132.023C49.8906 132.023 50.8021 131.831 51.7031 131.445V132.602C51.2448 132.799 50.8099 132.94 50.3984 133.023C49.9922 133.112 49.5 133.156 48.9219 133.156ZM48.5703 125.367C47.8828 125.367 47.3333 125.591 46.9219 126.039C46.5156 126.487 46.276 127.107 46.2031 127.898H50.6797C50.6797 127.081 50.4974 126.456 50.1328 126.023C49.7682 125.586 49.2474 125.367 48.5703 125.367ZM60.1172 131.852H60.0469C59.4479 132.721 58.5521 133.156 57.3594 133.156C56.2396 133.156 55.3672 132.773 54.7422 132.008C54.1224 131.242 53.8125 130.154 53.8125 128.742C53.8125 127.331 54.125 126.234 54.75 125.453C55.375 124.672 56.2448 124.281 57.3594 124.281C58.5208 124.281 59.4115 124.703 60.0312 125.547H60.1328L60.0781 124.93L60.0469 124.328V120.844H61.3438V133H60.2891L60.1172 131.852ZM57.5234 132.07C58.4089 132.07 59.0495 131.831 59.4453 131.352C59.8464 130.867 60.0469 130.089 60.0469 129.016V128.742C60.0469 127.529 59.8438 126.664 59.4375 126.148C59.0365 125.628 58.3932 125.367 57.5078 125.367C56.7474 125.367 56.1641 125.664 55.7578 126.258C55.3568 126.846 55.1562 127.68 55.1562 128.758C55.1562 129.852 55.3568 130.677 55.7578 131.234C56.1589 131.792 56.7474 132.07 57.5234 132.07ZM69.5547 133H68.2578V124.438H69.5547V133ZM68.1484 122.117C68.1484 121.82 68.2214 121.604 68.3672 121.469C68.513 121.328 68.6953 121.258 68.9141 121.258C69.1224 121.258 69.3021 121.328 69.4531 121.469C69.6042 121.609 69.6797 121.826 69.6797 122.117C69.6797 122.409 69.6042 122.628 69.4531 122.773C69.3021 122.914 69.1224 122.984 68.9141 122.984C68.6953 122.984 68.513 122.914 68.3672 122.773C68.2214 122.628 68.1484 122.409 68.1484 122.117ZM78.1641 133V127.461C78.1641 126.763 78.0052 126.242 77.6875 125.898C77.3698 125.555 76.8724 125.383 76.1953 125.383C75.2995 125.383 74.6432 125.625 74.2266 126.109C73.8099 126.594 73.6016 127.393 73.6016 128.508V133H72.3047V124.438H73.3594L73.5703 125.609H73.6328C73.8984 125.188 74.2708 124.862 74.75 124.633C75.2292 124.398 75.763 124.281 76.3516 124.281C77.3828 124.281 78.1589 124.531 78.6797 125.031C79.2005 125.526 79.4609 126.32 79.4609 127.414V133H78.1641ZM84.8984 132.086C85.1276 132.086 85.349 132.07 85.5625 132.039C85.776 132.003 85.9453 131.966 86.0703 131.93V132.922C85.9297 132.99 85.7214 133.044 85.4453 133.086C85.1745 133.133 84.9297 133.156 84.7109 133.156C83.0547 133.156 82.2266 132.284 82.2266 130.539V125.445H81V124.82L82.2266 124.281L82.7734 122.453H83.5234V124.438H86.0078V125.445H83.5234V130.484C83.5234 131 83.6458 131.396 83.8906 131.672C84.1354 131.948 84.4714 132.086 84.8984 132.086ZM95.1797 128.711C95.1797 130.107 94.8281 131.198 94.125 131.984C93.4219 132.766 92.4505 133.156 91.2109 133.156C90.4453 133.156 89.7656 132.977 89.1719 132.617C88.5781 132.258 88.1198 131.742 87.7969 131.07C87.474 130.398 87.3125 129.612 87.3125 128.711C87.3125 127.315 87.6615 126.229 88.3594 125.453C89.0573 124.672 90.026 124.281 91.2656 124.281C92.4635 124.281 93.4141 124.68 94.1172 125.477C94.8255 126.273 95.1797 127.352 95.1797 128.711ZM88.6562 128.711C88.6562 129.805 88.875 130.638 89.3125 131.211C89.75 131.784 90.3932 132.07 91.2422 132.07C92.0911 132.07 92.7344 131.786 93.1719 131.219C93.6146 130.646 93.8359 129.81 93.8359 128.711C93.8359 127.622 93.6146 126.797 93.1719 126.234C92.7344 125.667 92.0859 125.383 91.2266 125.383C90.3776 125.383 89.737 125.661 89.3047 126.219C88.8724 126.776 88.6562 127.607 88.6562 128.711ZM104.383 132.086C104.612 132.086 104.833 132.07 105.047 132.039C105.26 132.003 105.43 131.966 105.555 131.93V132.922C105.414 132.99 105.206 133.044 104.93 133.086C104.659 133.133 104.414 133.156 104.195 133.156C102.539 133.156 101.711 132.284 101.711 130.539V125.445H100.484V124.82L101.711 124.281L102.258 122.453H103.008V124.438H105.492V125.445H103.008V130.484C103.008 131 103.13 131.396 103.375 131.672C103.62 131.948 103.956 132.086 104.383 132.086ZM113.133 133V127.461C113.133 126.763 112.974 126.242 112.656 125.898C112.339 125.555 111.841 125.383 111.164 125.383C110.263 125.383 109.604 125.628 109.188 126.117C108.776 126.607 108.57 127.409 108.57 128.523V133H107.273V120.844H108.57V124.523C108.57 124.966 108.549 125.333 108.508 125.625H108.586C108.841 125.214 109.203 124.891 109.672 124.656C110.146 124.417 110.685 124.297 111.289 124.297C112.336 124.297 113.12 124.547 113.641 125.047C114.167 125.542 114.43 126.331 114.43 127.414V133H113.133ZM120.719 133.156C119.453 133.156 118.453 132.771 117.719 132C116.99 131.229 116.625 130.159 116.625 128.789C116.625 127.409 116.964 126.312 117.641 125.5C118.323 124.688 119.237 124.281 120.383 124.281C121.456 124.281 122.305 124.635 122.93 125.344C123.555 126.047 123.867 126.977 123.867 128.133V128.953H117.969C117.995 129.958 118.247 130.721 118.727 131.242C119.211 131.763 119.891 132.023 120.766 132.023C121.688 132.023 122.599 131.831 123.5 131.445V132.602C123.042 132.799 122.607 132.94 122.195 133.023C121.789 133.112 121.297 133.156 120.719 133.156ZM120.367 125.367C119.68 125.367 119.13 125.591 118.719 126.039C118.312 126.487 118.073 127.107 118 127.898H122.477C122.477 127.081 122.294 126.456 121.93 126.023C121.565 125.586 121.044 125.367 120.367 125.367ZM136.07 131.852H136C135.401 132.721 134.505 133.156 133.312 133.156C132.193 133.156 131.32 132.773 130.695 132.008C130.076 131.242 129.766 130.154 129.766 128.742C129.766 127.331 130.078 126.234 130.703 125.453C131.328 124.672 132.198 124.281 133.312 124.281C134.474 124.281 135.365 124.703 135.984 125.547H136.086L136.031 124.93L136 124.328V120.844H137.297V133H136.242L136.07 131.852ZM133.477 132.07C134.362 132.07 135.003 131.831 135.398 131.352C135.799 130.867 136 130.089 136 129.016V128.742C136 127.529 135.797 126.664 135.391 126.148C134.99 125.628 134.346 125.367 133.461 125.367C132.701 125.367 132.117 125.664 131.711 126.258C131.31 126.846 131.109 127.68 131.109 128.758C131.109 129.852 131.31 130.677 131.711 131.234C132.112 131.792 132.701 132.07 133.477 132.07ZM143.961 124.281C144.341 124.281 144.682 124.312 144.984 124.375L144.805 125.578C144.451 125.5 144.138 125.461 143.867 125.461C143.174 125.461 142.581 125.742 142.086 126.305C141.596 126.867 141.352 127.568 141.352 128.406V133H140.055V124.438H141.125L141.273 126.023H141.336C141.654 125.466 142.036 125.036 142.484 124.734C142.932 124.432 143.424 124.281 143.961 124.281ZM151.852 133L151.594 131.781H151.531C151.104 132.318 150.677 132.682 150.25 132.875C149.828 133.062 149.299 133.156 148.664 133.156C147.815 133.156 147.148 132.938 146.664 132.5C146.185 132.062 145.945 131.44 145.945 130.633C145.945 128.904 147.328 127.997 150.094 127.914L151.547 127.867V127.336C151.547 126.664 151.401 126.169 151.109 125.852C150.823 125.529 150.362 125.367 149.727 125.367C149.013 125.367 148.206 125.586 147.305 126.023L146.906 125.031C147.328 124.802 147.789 124.622 148.289 124.492C148.794 124.362 149.299 124.297 149.805 124.297C150.826 124.297 151.581 124.523 152.07 124.977C152.565 125.43 152.812 126.156 152.812 127.156V133H151.852ZM148.922 132.086C149.729 132.086 150.362 131.865 150.82 131.422C151.284 130.979 151.516 130.359 151.516 129.562V128.789L150.219 128.844C149.188 128.88 148.443 129.042 147.984 129.328C147.531 129.609 147.305 130.049 147.305 130.648C147.305 131.117 147.445 131.474 147.727 131.719C148.013 131.964 148.411 132.086 148.922 132.086ZM162.484 133L160.914 127.977C160.815 127.669 160.63 126.971 160.359 125.883H160.297C160.089 126.794 159.906 127.497 159.75 127.992L158.133 133H156.633L154.297 124.438H155.656C156.208 126.589 156.628 128.227 156.914 129.352C157.206 130.477 157.372 131.234 157.414 131.625H157.477C157.534 131.328 157.625 130.945 157.75 130.477C157.88 130.003 157.992 129.628 158.086 129.352L159.656 124.438H161.062L162.594 129.352C162.885 130.247 163.083 131 163.188 131.609H163.25C163.271 131.422 163.326 131.133 163.414 130.742C163.508 130.352 164.052 128.25 165.047 124.438H166.391L164.023 133H162.484ZM169.305 131.141L169.422 131.32C169.286 131.841 169.091 132.445 168.836 133.133C168.581 133.826 168.315 134.469 168.039 135.062H167.062C167.203 134.521 167.357 133.852 167.523 133.055C167.695 132.258 167.815 131.62 167.883 131.141H169.305ZM181.547 130.664C181.547 131.461 181.25 132.076 180.656 132.508C180.062 132.94 179.229 133.156 178.156 133.156C177.021 133.156 176.135 132.977 175.5 132.617V131.414C175.911 131.622 176.352 131.786 176.82 131.906C177.294 132.026 177.75 132.086 178.188 132.086C178.865 132.086 179.385 131.979 179.75 131.766C180.115 131.547 180.297 131.216 180.297 130.773C180.297 130.44 180.151 130.156 179.859 129.922C179.573 129.682 179.01 129.401 178.172 129.078C177.375 128.781 176.807 128.523 176.469 128.305C176.135 128.081 175.885 127.828 175.719 127.547C175.557 127.266 175.477 126.93 175.477 126.539C175.477 125.841 175.76 125.292 176.328 124.891C176.896 124.484 177.674 124.281 178.664 124.281C179.586 124.281 180.487 124.469 181.367 124.844L180.906 125.898C180.047 125.544 179.268 125.367 178.57 125.367C177.956 125.367 177.492 125.464 177.18 125.656C176.867 125.849 176.711 126.115 176.711 126.453C176.711 126.682 176.768 126.878 176.883 127.039C177.003 127.201 177.193 127.354 177.453 127.5C177.714 127.646 178.214 127.857 178.953 128.133C179.969 128.503 180.654 128.875 181.008 129.25C181.367 129.625 181.547 130.096 181.547 130.664ZM186.43 132.086C186.659 132.086 186.88 132.07 187.094 132.039C187.307 132.003 187.477 131.966 187.602 131.93V132.922C187.461 132.99 187.253 133.044 186.977 133.086C186.706 133.133 186.461 133.156 186.242 133.156C184.586 133.156 183.758 132.284 183.758 130.539V125.445H182.531V124.82L183.758 124.281L184.305 122.453H185.055V124.438H187.539V125.445H185.055V130.484C185.055 131 185.177 131.396 185.422 131.672C185.667 131.948 186.003 132.086 186.43 132.086ZM193.227 124.281C193.607 124.281 193.948 124.312 194.25 124.375L194.07 125.578C193.716 125.5 193.404 125.461 193.133 125.461C192.44 125.461 191.846 125.742 191.352 126.305C190.862 126.867 190.617 127.568 190.617 128.406V133H189.32V124.438H190.391L190.539 126.023H190.602C190.919 125.466 191.302 125.036 191.75 124.734C192.198 124.432 192.69 124.281 193.227 124.281ZM199.469 133.156C198.203 133.156 197.203 132.771 196.469 132C195.74 131.229 195.375 130.159 195.375 128.789C195.375 127.409 195.714 126.312 196.391 125.5C197.073 124.688 197.987 124.281 199.133 124.281C200.206 124.281 201.055 124.635 201.68 125.344C202.305 126.047 202.617 126.977 202.617 128.133V128.953H196.719C196.745 129.958 196.997 130.721 197.477 131.242C197.961 131.763 198.641 132.023 199.516 132.023C200.438 132.023 201.349 131.831 202.25 131.445V132.602C201.792 132.799 201.357 132.94 200.945 133.023C200.539 133.112 200.047 133.156 199.469 133.156ZM199.117 125.367C198.43 125.367 197.88 125.591 197.469 126.039C197.062 126.487 196.823 127.107 196.75 127.898H201.227C201.227 127.081 201.044 126.456 200.68 126.023C200.315 125.586 199.794 125.367 199.117 125.367ZM210.102 133L209.844 131.781H209.781C209.354 132.318 208.927 132.682 208.5 132.875C208.078 133.062 207.549 133.156 206.914 133.156C206.065 133.156 205.398 132.938 204.914 132.5C204.435 132.062 204.195 131.44 204.195 130.633C204.195 128.904 205.578 127.997 208.344 127.914L209.797 127.867V127.336C209.797 126.664 209.651 126.169 209.359 125.852C209.073 125.529 208.612 125.367 207.977 125.367C207.263 125.367 206.456 125.586 205.555 126.023L205.156 125.031C205.578 124.802 206.039 124.622 206.539 124.492C207.044 124.362 207.549 124.297 208.055 124.297C209.076 124.297 209.831 124.523 210.32 124.977C210.815 125.43 211.062 126.156 211.062 127.156V133H210.102ZM207.172 132.086C207.979 132.086 208.612 131.865 209.07 131.422C209.534 130.979 209.766 130.359 209.766 129.562V128.789L208.469 128.844C207.438 128.88 206.693 129.042 206.234 129.328C205.781 129.609 205.555 130.049 205.555 130.648C205.555 131.117 205.695 131.474 205.977 131.719C206.263 131.964 206.661 132.086 207.172 132.086ZM224.656 133V127.43C224.656 126.747 224.51 126.237 224.219 125.898C223.927 125.555 223.474 125.383 222.859 125.383C222.052 125.383 221.456 125.615 221.07 126.078C220.685 126.542 220.492 127.255 220.492 128.219V133H219.195V127.43C219.195 126.747 219.049 126.237 218.758 125.898C218.466 125.555 218.01 125.383 217.391 125.383C216.578 125.383 215.982 125.628 215.602 126.117C215.227 126.602 215.039 127.398 215.039 128.508V133H213.742V124.438H214.797L215.008 125.609H215.07C215.315 125.193 215.659 124.867 216.102 124.633C216.549 124.398 217.049 124.281 217.602 124.281C218.94 124.281 219.815 124.766 220.227 125.734H220.289C220.544 125.286 220.914 124.932 221.398 124.672C221.883 124.411 222.435 124.281 223.055 124.281C224.023 124.281 224.747 124.531 225.227 125.031C225.711 125.526 225.953 126.32 225.953 127.414V133H224.656ZM232.25 133.156C230.984 133.156 229.984 132.771 229.25 132C228.521 131.229 228.156 130.159 228.156 128.789C228.156 127.409 228.495 126.312 229.172 125.5C229.854 124.688 230.768 124.281 231.914 124.281C232.987 124.281 233.836 124.635 234.461 125.344C235.086 126.047 235.398 126.977 235.398 128.133V128.953H229.5C229.526 129.958 229.779 130.721 230.258 131.242C230.742 131.763 231.422 132.023 232.297 132.023C233.219 132.023 234.13 131.831 235.031 131.445V132.602C234.573 132.799 234.138 132.94 233.727 133.023C233.32 133.112 232.828 133.156 232.25 133.156ZM231.898 125.367C231.211 125.367 230.661 125.591 230.25 126.039C229.844 126.487 229.604 127.107 229.531 127.898H234.008C234.008 127.081 233.826 126.456 233.461 126.023C233.096 125.586 232.576 125.367 231.898 125.367ZM243.445 131.852H243.375C242.776 132.721 241.88 133.156 240.688 133.156C239.568 133.156 238.695 132.773 238.07 132.008C237.451 131.242 237.141 130.154 237.141 128.742C237.141 127.331 237.453 126.234 238.078 125.453C238.703 124.672 239.573 124.281 240.688 124.281C241.849 124.281 242.74 124.703 243.359 125.547H243.461L243.406 124.93L243.375 124.328V120.844H244.672V133H243.617L243.445 131.852ZM240.852 132.07C241.737 132.07 242.378 131.831 242.773 131.352C243.174 130.867 243.375 130.089 243.375 129.016V128.742C243.375 127.529 243.172 126.664 242.766 126.148C242.365 125.628 241.721 125.367 240.836 125.367C240.076 125.367 239.492 125.664 239.086 126.258C238.685 126.846 238.484 127.68 238.484 128.758C238.484 129.852 238.685 130.677 239.086 131.234C239.487 131.792 240.076 132.07 240.852 132.07ZM5.59375 155V143.578H6.92188V153.797H11.9609V155H5.59375ZM13.9062 155V143.578H15.2344V155H13.9062ZM24.8984 143.578H26.3281L22.2109 155H20.8984L16.8047 143.578H18.2109L20.8359 150.969C21.138 151.818 21.3776 152.643 21.5547 153.445C21.7422 152.602 21.987 151.76 22.2891 150.922L24.8984 143.578ZM34.2734 155H27.9062V143.578H34.2734V144.758H29.2344V148.438H33.9688V149.609H29.2344V153.812H34.2734V155ZM48.1641 150.711C48.1641 152.107 47.8125 153.198 47.1094 153.984C46.4062 154.766 45.4349 155.156 44.1953 155.156C43.4297 155.156 42.75 154.977 42.1562 154.617C41.5625 154.258 41.1042 153.742 40.7812 153.07C40.4583 152.398 40.2969 151.612 40.2969 150.711C40.2969 149.315 40.6458 148.229 41.3438 147.453C42.0417 146.672 43.0104 146.281 44.25 146.281C45.4479 146.281 46.3984 146.68 47.1016 147.477C47.8099 148.273 48.1641 149.352 48.1641 150.711ZM41.6406 150.711C41.6406 151.805 41.8594 152.638 42.2969 153.211C42.7344 153.784 43.3776 154.07 44.2266 154.07C45.0755 154.07 45.7188 153.786 46.1562 153.219C46.599 152.646 46.8203 151.81 46.8203 150.711C46.8203 149.622 46.599 148.797 46.1562 148.234C45.7188 147.667 45.0703 147.383 44.2109 147.383C43.362 147.383 42.7214 147.661 42.2891 148.219C41.8568 148.776 41.6406 149.607 41.6406 150.711ZM56.3047 155V149.461C56.3047 148.763 56.1458 148.242 55.8281 147.898C55.5104 147.555 55.013 147.383 54.3359 147.383C53.4401 147.383 52.7839 147.625 52.3672 148.109C51.9505 148.594 51.7422 149.393 51.7422 150.508V155H50.4453V146.438H51.5L51.7109 147.609H51.7734C52.0391 147.188 52.4115 146.862 52.8906 146.633C53.3698 146.398 53.9036 146.281 54.4922 146.281C55.5234 146.281 56.2995 146.531 56.8203 147.031C57.3411 147.526 57.6016 148.32 57.6016 149.414V155H56.3047ZM65.9531 155H64.625V143.578H70.9922V144.758H65.9531V148.938H70.6875V150.117H65.9531V155ZM77.9609 155L77.7031 153.781H77.6406C77.2135 154.318 76.7865 154.682 76.3594 154.875C75.9375 155.062 75.4089 155.156 74.7734 155.156C73.9245 155.156 73.2578 154.938 72.7734 154.5C72.2943 154.062 72.0547 153.44 72.0547 152.633C72.0547 150.904 73.4375 149.997 76.2031 149.914L77.6562 149.867V149.336C77.6562 148.664 77.5104 148.169 77.2188 147.852C76.9323 147.529 76.4714 147.367 75.8359 147.367C75.1224 147.367 74.3151 147.586 73.4141 148.023L73.0156 147.031C73.4375 146.802 73.8984 146.622 74.3984 146.492C74.9036 146.362 75.4089 146.297 75.9141 146.297C76.9349 146.297 77.6901 146.523 78.1797 146.977C78.6745 147.43 78.9219 148.156 78.9219 149.156V155H77.9609ZM75.0312 154.086C75.8385 154.086 76.4714 153.865 76.9297 153.422C77.3932 152.979 77.625 152.359 77.625 151.562V150.789L76.3281 150.844C75.2969 150.88 74.5521 151.042 74.0938 151.328C73.6406 151.609 73.4141 152.049 73.4141 152.648C73.4141 153.117 73.5547 153.474 73.8359 153.719C74.1224 153.964 74.5208 154.086 75.0312 154.086ZM85.0234 155.156C83.7839 155.156 82.8229 154.776 82.1406 154.016C81.4635 153.25 81.125 152.169 81.125 150.773C81.125 149.341 81.4688 148.234 82.1562 147.453C82.849 146.672 83.8333 146.281 85.1094 146.281C85.5208 146.281 85.9323 146.326 86.3438 146.414C86.7552 146.503 87.0781 146.607 87.3125 146.727L86.9141 147.828C86.6276 147.714 86.3151 147.62 85.9766 147.547C85.638 147.469 85.3385 147.43 85.0781 147.43C83.3385 147.43 82.4688 148.539 82.4688 150.758C82.4688 151.81 82.6797 152.617 83.1016 153.18C83.5286 153.742 84.1589 154.023 84.9922 154.023C85.7057 154.023 86.4375 153.87 87.1875 153.562V154.711C86.6146 155.008 85.8932 155.156 85.0234 155.156ZM92.8438 155.156C91.5781 155.156 90.5781 154.771 89.8438 154C89.1146 153.229 88.75 152.159 88.75 150.789C88.75 149.409 89.0885 148.312 89.7656 147.5C90.4479 146.688 91.362 146.281 92.5078 146.281C93.5807 146.281 94.4297 146.635 95.0547 147.344C95.6797 148.047 95.9922 148.977 95.9922 150.133V150.953H90.0938C90.1198 151.958 90.3724 152.721 90.8516 153.242C91.3359 153.763 92.0156 154.023 92.8906 154.023C93.8125 154.023 94.724 153.831 95.625 153.445V154.602C95.1667 154.799 94.7318 154.94 94.3203 155.023C93.9141 155.112 93.4219 155.156 92.8438 155.156ZM92.4922 147.367C91.8047 147.367 91.2552 147.591 90.8438 148.039C90.4375 148.487 90.1979 149.107 90.125 149.898H94.6016C94.6016 149.081 94.4193 148.456 94.0547 148.023C93.6901 147.586 93.1693 147.367 92.4922 147.367ZM102.195 146.297C103.32 146.297 104.193 146.682 104.812 147.453C105.438 148.219 105.75 149.305 105.75 150.711C105.75 152.117 105.435 153.211 104.805 153.992C104.18 154.768 103.31 155.156 102.195 155.156C101.638 155.156 101.128 155.055 100.664 154.852C100.206 154.643 99.8203 154.326 99.5078 153.898H99.4141L99.1406 155H98.2109V142.844H99.5078V145.797C99.5078 146.458 99.487 147.052 99.4453 147.578H99.5078C100.112 146.724 101.008 146.297 102.195 146.297ZM102.008 147.383C101.122 147.383 100.484 147.638 100.094 148.148C99.7031 148.654 99.5078 149.508 99.5078 150.711C99.5078 151.914 99.7083 152.776 100.109 153.297C100.51 153.812 101.154 154.07 102.039 154.07C102.836 154.07 103.43 153.781 103.82 153.203C104.211 152.62 104.406 151.784 104.406 150.695C104.406 149.581 104.211 148.75 103.82 148.203C103.43 147.656 102.826 147.383 102.008 147.383ZM115.414 150.711C115.414 152.107 115.062 153.198 114.359 153.984C113.656 154.766 112.685 155.156 111.445 155.156C110.68 155.156 110 154.977 109.406 154.617C108.812 154.258 108.354 153.742 108.031 153.07C107.708 152.398 107.547 151.612 107.547 150.711C107.547 149.315 107.896 148.229 108.594 147.453C109.292 146.672 110.26 146.281 111.5 146.281C112.698 146.281 113.648 146.68 114.352 147.477C115.06 148.273 115.414 149.352 115.414 150.711ZM108.891 150.711C108.891 151.805 109.109 152.638 109.547 153.211C109.984 153.784 110.628 154.07 111.477 154.07C112.326 154.07 112.969 153.786 113.406 153.219C113.849 152.646 114.07 151.81 114.07 150.711C114.07 149.622 113.849 148.797 113.406 148.234C112.969 147.667 112.32 147.383 111.461 147.383C110.612 147.383 109.971 147.661 109.539 148.219C109.107 148.776 108.891 149.607 108.891 150.711ZM125.086 150.711C125.086 152.107 124.734 153.198 124.031 153.984C123.328 154.766 122.357 155.156 121.117 155.156C120.352 155.156 119.672 154.977 119.078 154.617C118.484 154.258 118.026 153.742 117.703 153.07C117.38 152.398 117.219 151.612 117.219 150.711C117.219 149.315 117.568 148.229 118.266 147.453C118.964 146.672 119.932 146.281 121.172 146.281C122.37 146.281 123.32 146.68 124.023 147.477C124.732 148.273 125.086 149.352 125.086 150.711ZM118.562 150.711C118.562 151.805 118.781 152.638 119.219 153.211C119.656 153.784 120.299 154.07 121.148 154.07C121.997 154.07 122.641 153.786 123.078 153.219C123.521 152.646 123.742 151.81 123.742 150.711C123.742 149.622 123.521 148.797 123.078 148.234C122.641 147.667 121.992 147.383 121.133 147.383C120.284 147.383 119.643 147.661 119.211 148.219C118.779 148.776 118.562 149.607 118.562 150.711ZM128.648 150.617C128.872 150.299 129.214 149.883 129.672 149.367L132.438 146.438H133.977L130.508 150.086L134.219 155H132.648L129.625 150.953L128.648 151.797V155H127.367V142.844H128.648V149.289C128.648 149.576 128.628 150.018 128.586 150.617H128.648ZM141.148 146.438V151.992C141.148 152.69 141.307 153.211 141.625 153.555C141.943 153.898 142.44 154.07 143.117 154.07C144.013 154.07 144.667 153.826 145.078 153.336C145.495 152.846 145.703 152.047 145.703 150.938V146.438H147V155H145.93L145.742 153.852H145.672C145.406 154.273 145.036 154.596 144.562 154.82C144.094 155.044 143.557 155.156 142.953 155.156C141.911 155.156 141.13 154.909 140.609 154.414C140.094 153.919 139.836 153.128 139.836 152.039V146.438H141.148ZM155.281 152.664C155.281 153.461 154.984 154.076 154.391 154.508C153.797 154.94 152.964 155.156 151.891 155.156C150.755 155.156 149.87 154.977 149.234 154.617V153.414C149.646 153.622 150.086 153.786 150.555 153.906C151.029 154.026 151.484 154.086 151.922 154.086C152.599 154.086 153.12 153.979 153.484 153.766C153.849 153.547 154.031 153.216 154.031 152.773C154.031 152.44 153.885 152.156 153.594 151.922C153.307 151.682 152.745 151.401 151.906 151.078C151.109 150.781 150.542 150.523 150.203 150.305C149.87 150.081 149.62 149.828 149.453 149.547C149.292 149.266 149.211 148.93 149.211 148.539C149.211 147.841 149.495 147.292 150.062 146.891C150.63 146.484 151.409 146.281 152.398 146.281C153.32 146.281 154.221 146.469 155.102 146.844L154.641 147.898C153.781 147.544 153.003 147.367 152.305 147.367C151.69 147.367 151.227 147.464 150.914 147.656C150.602 147.849 150.445 148.115 150.445 148.453C150.445 148.682 150.503 148.878 150.617 149.039C150.737 149.201 150.927 149.354 151.188 149.5C151.448 149.646 151.948 149.857 152.688 150.133C153.703 150.503 154.388 150.875 154.742 151.25C155.102 151.625 155.281 152.096 155.281 152.664ZM158.695 155H157.398V146.438H158.695V155ZM157.289 144.117C157.289 143.82 157.362 143.604 157.508 143.469C157.654 143.328 157.836 143.258 158.055 143.258C158.263 143.258 158.443 143.328 158.594 143.469C158.745 143.609 158.82 143.826 158.82 144.117C158.82 144.409 158.745 144.628 158.594 144.773C158.443 144.914 158.263 144.984 158.055 144.984C157.836 144.984 157.654 144.914 157.508 144.773C157.362 144.628 157.289 144.409 157.289 144.117ZM167.305 155V149.461C167.305 148.763 167.146 148.242 166.828 147.898C166.51 147.555 166.013 147.383 165.336 147.383C164.44 147.383 163.784 147.625 163.367 148.109C162.951 148.594 162.742 149.393 162.742 150.508V155H161.445V146.438H162.5L162.711 147.609H162.773C163.039 147.188 163.411 146.862 163.891 146.633C164.37 146.398 164.904 146.281 165.492 146.281C166.523 146.281 167.299 146.531 167.82 147.031C168.341 147.526 168.602 148.32 168.602 149.414V155H167.305ZM178.281 146.438V147.258L176.695 147.445C176.841 147.628 176.971 147.867 177.086 148.164C177.201 148.456 177.258 148.786 177.258 149.156C177.258 149.995 176.971 150.664 176.398 151.164C175.826 151.664 175.039 151.914 174.039 151.914C173.784 151.914 173.544 151.893 173.32 151.852C172.768 152.143 172.492 152.51 172.492 152.953C172.492 153.188 172.589 153.362 172.781 153.477C172.974 153.586 173.305 153.641 173.773 153.641H175.289C176.216 153.641 176.927 153.836 177.422 154.227C177.922 154.617 178.172 155.185 178.172 155.93C178.172 156.878 177.792 157.599 177.031 158.094C176.271 158.594 175.161 158.844 173.703 158.844C172.583 158.844 171.719 158.635 171.109 158.219C170.505 157.802 170.203 157.214 170.203 156.453C170.203 155.932 170.37 155.482 170.703 155.102C171.036 154.721 171.505 154.464 172.109 154.328C171.891 154.229 171.706 154.076 171.555 153.867C171.409 153.659 171.336 153.417 171.336 153.141C171.336 152.828 171.419 152.555 171.586 152.32C171.753 152.086 172.016 151.859 172.375 151.641C171.932 151.458 171.57 151.148 171.289 150.711C171.013 150.273 170.875 149.773 170.875 149.211C170.875 148.273 171.156 147.552 171.719 147.047C172.281 146.536 173.078 146.281 174.109 146.281C174.557 146.281 174.961 146.333 175.32 146.438H178.281ZM171.453 156.438C171.453 156.901 171.648 157.253 172.039 157.492C172.43 157.732 172.99 157.852 173.719 157.852C174.807 157.852 175.612 157.688 176.133 157.359C176.659 157.036 176.922 156.596 176.922 156.039C176.922 155.576 176.779 155.253 176.492 155.07C176.206 154.893 175.667 154.805 174.875 154.805H173.32C172.732 154.805 172.273 154.945 171.945 155.227C171.617 155.508 171.453 155.911 171.453 156.438ZM172.156 149.18C172.156 149.779 172.326 150.232 172.664 150.539C173.003 150.846 173.474 151 174.078 151C175.344 151 175.977 150.385 175.977 149.156C175.977 147.87 175.336 147.227 174.055 147.227C173.445 147.227 172.977 147.391 172.648 147.719C172.32 148.047 172.156 148.534 172.156 149.18ZM189.414 149.016H193.297V154.57C192.693 154.763 192.078 154.909 191.453 155.008C190.828 155.107 190.104 155.156 189.281 155.156C187.552 155.156 186.206 154.643 185.242 153.617C184.279 152.586 183.797 151.143 183.797 149.289C183.797 148.102 184.034 147.062 184.508 146.172C184.987 145.276 185.674 144.594 186.57 144.125C187.466 143.651 188.516 143.414 189.719 143.414C190.938 143.414 192.073 143.638 193.125 144.086L192.609 145.258C191.578 144.82 190.586 144.602 189.633 144.602C188.242 144.602 187.156 145.016 186.375 145.844C185.594 146.672 185.203 147.82 185.203 149.289C185.203 150.831 185.578 152 186.328 152.797C187.083 153.594 188.19 153.992 189.648 153.992C190.44 153.992 191.214 153.901 191.969 153.719V150.203H189.414V149.016ZM203.242 150.711C203.242 152.107 202.891 153.198 202.188 153.984C201.484 154.766 200.513 155.156 199.273 155.156C198.508 155.156 197.828 154.977 197.234 154.617C196.641 154.258 196.182 153.742 195.859 153.07C195.536 152.398 195.375 151.612 195.375 150.711C195.375 149.315 195.724 148.229 196.422 147.453C197.12 146.672 198.089 146.281 199.328 146.281C200.526 146.281 201.477 146.68 202.18 147.477C202.888 148.273 203.242 149.352 203.242 150.711ZM196.719 150.711C196.719 151.805 196.938 152.638 197.375 153.211C197.812 153.784 198.456 154.07 199.305 154.07C200.154 154.07 200.797 153.786 201.234 153.219C201.677 152.646 201.898 151.81 201.898 150.711C201.898 149.622 201.677 148.797 201.234 148.234C200.797 147.667 200.148 147.383 199.289 147.383C198.44 147.383 197.799 147.661 197.367 148.219C196.935 148.776 196.719 149.607 196.719 150.711ZM212.914 150.711C212.914 152.107 212.562 153.198 211.859 153.984C211.156 154.766 210.185 155.156 208.945 155.156C208.18 155.156 207.5 154.977 206.906 154.617C206.312 154.258 205.854 153.742 205.531 153.07C205.208 152.398 205.047 151.612 205.047 150.711C205.047 149.315 205.396 148.229 206.094 147.453C206.792 146.672 207.76 146.281 209 146.281C210.198 146.281 211.148 146.68 211.852 147.477C212.56 148.273 212.914 149.352 212.914 150.711ZM206.391 150.711C206.391 151.805 206.609 152.638 207.047 153.211C207.484 153.784 208.128 154.07 208.977 154.07C209.826 154.07 210.469 153.786 210.906 153.219C211.349 152.646 211.57 151.81 211.57 150.711C211.57 149.622 211.349 148.797 210.906 148.234C210.469 147.667 209.82 147.383 208.961 147.383C208.112 147.383 207.471 147.661 207.039 148.219C206.607 148.776 206.391 149.607 206.391 150.711ZM222.203 146.438V147.258L220.617 147.445C220.763 147.628 220.893 147.867 221.008 148.164C221.122 148.456 221.18 148.786 221.18 149.156C221.18 149.995 220.893 150.664 220.32 151.164C219.747 151.664 218.961 151.914 217.961 151.914C217.706 151.914 217.466 151.893 217.242 151.852C216.69 152.143 216.414 152.51 216.414 152.953C216.414 153.188 216.51 153.362 216.703 153.477C216.896 153.586 217.227 153.641 217.695 153.641H219.211C220.138 153.641 220.849 153.836 221.344 154.227C221.844 154.617 222.094 155.185 222.094 155.93C222.094 156.878 221.714 157.599 220.953 158.094C220.193 158.594 219.083 158.844 217.625 158.844C216.505 158.844 215.641 158.635 215.031 158.219C214.427 157.802 214.125 157.214 214.125 156.453C214.125 155.932 214.292 155.482 214.625 155.102C214.958 154.721 215.427 154.464 216.031 154.328C215.812 154.229 215.628 154.076 215.477 153.867C215.331 153.659 215.258 153.417 215.258 153.141C215.258 152.828 215.341 152.555 215.508 152.32C215.674 152.086 215.938 151.859 216.297 151.641C215.854 151.458 215.492 151.148 215.211 150.711C214.935 150.273 214.797 149.773 214.797 149.211C214.797 148.273 215.078 147.552 215.641 147.047C216.203 146.536 217 146.281 218.031 146.281C218.479 146.281 218.883 146.333 219.242 146.438H222.203ZM215.375 156.438C215.375 156.901 215.57 157.253 215.961 157.492C216.352 157.732 216.911 157.852 217.641 157.852C218.729 157.852 219.534 157.688 220.055 157.359C220.581 157.036 220.844 156.596 220.844 156.039C220.844 155.576 220.701 155.253 220.414 155.07C220.128 154.893 219.589 154.805 218.797 154.805H217.242C216.654 154.805 216.195 154.945 215.867 155.227C215.539 155.508 215.375 155.911 215.375 156.438ZM216.078 149.18C216.078 149.779 216.247 150.232 216.586 150.539C216.924 150.846 217.396 151 218 151C219.266 151 219.898 150.385 219.898 149.156C219.898 147.87 219.258 147.227 217.977 147.227C217.367 147.227 216.898 147.391 216.57 147.719C216.242 148.047 216.078 148.534 216.078 149.18ZM225.258 155H223.961V142.844H225.258V155ZM231.625 155.156C230.359 155.156 229.359 154.771 228.625 154C227.896 153.229 227.531 152.159 227.531 150.789C227.531 149.409 227.87 148.312 228.547 147.5C229.229 146.688 230.143 146.281 231.289 146.281C232.362 146.281 233.211 146.635 233.836 147.344C234.461 148.047 234.773 148.977 234.773 150.133V150.953H228.875C228.901 151.958 229.154 152.721 229.633 153.242C230.117 153.763 230.797 154.023 231.672 154.023C232.594 154.023 233.505 153.831 234.406 153.445V154.602C233.948 154.799 233.513 154.94 233.102 155.023C232.695 155.112 232.203 155.156 231.625 155.156ZM231.273 147.367C230.586 147.367 230.036 147.591 229.625 148.039C229.219 148.487 228.979 149.107 228.906 149.898H233.383C233.383 149.081 233.201 148.456 232.836 148.023C232.471 147.586 231.951 147.367 231.273 147.367ZM238.031 143.578L238.148 143.75C238.013 144.271 237.818 144.878 237.562 145.57C237.307 146.258 237.042 146.898 236.766 147.492H235.812C236.177 146.008 236.443 144.703 236.609 143.578H238.031ZM245.234 152.664C245.234 153.461 244.938 154.076 244.344 154.508C243.75 154.94 242.917 155.156 241.844 155.156C240.708 155.156 239.823 154.977 239.188 154.617V153.414C239.599 153.622 240.039 153.786 240.508 153.906C240.982 154.026 241.438 154.086 241.875 154.086C242.552 154.086 243.073 153.979 243.438 153.766C243.802 153.547 243.984 153.216 243.984 152.773C243.984 152.44 243.839 152.156 243.547 151.922C243.26 151.682 242.698 151.401 241.859 151.078C241.062 150.781 240.495 150.523 240.156 150.305C239.823 150.081 239.573 149.828 239.406 149.547C239.245 149.266 239.164 148.93 239.164 148.539C239.164 147.841 239.448 147.292 240.016 146.891C240.583 146.484 241.362 146.281 242.352 146.281C243.273 146.281 244.174 146.469 245.055 146.844L244.594 147.898C243.734 147.544 242.956 147.367 242.258 147.367C241.643 147.367 241.18 147.464 240.867 147.656C240.555 147.849 240.398 148.115 240.398 148.453C240.398 148.682 240.456 148.878 240.57 149.039C240.69 149.201 240.88 149.354 241.141 149.5C241.401 149.646 241.901 149.857 242.641 150.133C243.656 150.503 244.341 150.875 244.695 151.25C245.055 151.625 245.234 152.096 245.234 152.664ZM29.4375 168.281C29.8177 168.281 30.1589 168.312 30.4609 168.375L30.2812 169.578C29.9271 169.5 29.6146 169.461 29.3438 169.461C28.651 169.461 28.0573 169.742 27.5625 170.305C27.0729 170.867 26.8281 171.568 26.8281 172.406V177H25.5312V168.438H26.6016L26.75 170.023H26.8125C27.1302 169.466 27.513 169.036 27.9609 168.734C28.4089 168.432 28.901 168.281 29.4375 168.281ZM37.3281 177L37.0703 175.781H37.0078C36.5807 176.318 36.1536 176.682 35.7266 176.875C35.3047 177.062 34.776 177.156 34.1406 177.156C33.2917 177.156 32.625 176.938 32.1406 176.5C31.6615 176.062 31.4219 175.44 31.4219 174.633C31.4219 172.904 32.8047 171.997 35.5703 171.914L37.0234 171.867V171.336C37.0234 170.664 36.8776 170.169 36.5859 169.852C36.2995 169.529 35.8385 169.367 35.2031 169.367C34.4896 169.367 33.6823 169.586 32.7812 170.023L32.3828 169.031C32.8047 168.802 33.2656 168.622 33.7656 168.492C34.2708 168.362 34.776 168.297 35.2812 168.297C36.3021 168.297 37.0573 168.523 37.5469 168.977C38.0417 169.43 38.2891 170.156 38.2891 171.156V177H37.3281ZM34.3984 176.086C35.2057 176.086 35.8385 175.865 36.2969 175.422C36.7604 174.979 36.9922 174.359 36.9922 173.562V172.789L35.6953 172.844C34.6641 172.88 33.9193 173.042 33.4609 173.328C33.0078 173.609 32.7812 174.049 32.7812 174.648C32.7812 175.117 32.9219 175.474 33.2031 175.719C33.4896 175.964 33.888 176.086 34.3984 176.086ZM46.8281 177V171.461C46.8281 170.763 46.6693 170.242 46.3516 169.898C46.0339 169.555 45.5365 169.383 44.8594 169.383C43.9635 169.383 43.3073 169.625 42.8906 170.109C42.474 170.594 42.2656 171.393 42.2656 172.508V177H40.9688V168.438H42.0234L42.2344 169.609H42.2969C42.5625 169.188 42.9349 168.862 43.4141 168.633C43.8932 168.398 44.4271 168.281 45.0156 168.281C46.0469 168.281 46.8229 168.531 47.3438 169.031C47.8646 169.526 48.125 170.32 48.125 171.414V177H46.8281ZM56.625 175.852H56.5547C55.9557 176.721 55.0599 177.156 53.8672 177.156C52.7474 177.156 51.875 176.773 51.25 176.008C50.6302 175.242 50.3203 174.154 50.3203 172.742C50.3203 171.331 50.6328 170.234 51.2578 169.453C51.8828 168.672 52.7526 168.281 53.8672 168.281C55.0286 168.281 55.9193 168.703 56.5391 169.547H56.6406L56.5859 168.93L56.5547 168.328V164.844H57.8516V177H56.7969L56.625 175.852ZM54.0312 176.07C54.9167 176.07 55.5573 175.831 55.9531 175.352C56.3542 174.867 56.5547 174.089 56.5547 173.016V172.742C56.5547 171.529 56.3516 170.664 55.9453 170.148C55.5443 169.628 54.901 169.367 54.0156 169.367C53.2552 169.367 52.6719 169.664 52.2656 170.258C51.8646 170.846 51.6641 171.68 51.6641 172.758C51.6641 173.852 51.8646 174.677 52.2656 175.234C52.6667 175.792 53.2552 176.07 54.0312 176.07ZM68 172.711C68 174.107 67.6484 175.198 66.9453 175.984C66.2422 176.766 65.2708 177.156 64.0312 177.156C63.2656 177.156 62.5859 176.977 61.9922 176.617C61.3984 176.258 60.9401 175.742 60.6172 175.07C60.2943 174.398 60.1328 173.612 60.1328 172.711C60.1328 171.315 60.4818 170.229 61.1797 169.453C61.8776 168.672 62.8464 168.281 64.0859 168.281C65.2839 168.281 66.2344 168.68 66.9375 169.477C67.6458 170.273 68 171.352 68 172.711ZM61.4766 172.711C61.4766 173.805 61.6953 174.638 62.1328 175.211C62.5703 175.784 63.2135 176.07 64.0625 176.07C64.9115 176.07 65.5547 175.786 65.9922 175.219C66.4349 174.646 66.6562 173.81 66.6562 172.711C66.6562 171.622 66.4349 170.797 65.9922 170.234C65.5547 169.667 64.9062 169.383 64.0469 169.383C63.1979 169.383 62.5573 169.661 62.125 170.219C61.6927 170.776 61.4766 171.607 61.4766 172.711ZM81.1953 177V171.43C81.1953 170.747 81.0495 170.237 80.7578 169.898C80.4661 169.555 80.013 169.383 79.3984 169.383C78.5911 169.383 77.9948 169.615 77.6094 170.078C77.224 170.542 77.0312 171.255 77.0312 172.219V177H75.7344V171.43C75.7344 170.747 75.5885 170.237 75.2969 169.898C75.0052 169.555 74.5495 169.383 73.9297 169.383C73.1172 169.383 72.5208 169.628 72.1406 170.117C71.7656 170.602 71.5781 171.398 71.5781 172.508V177H70.2812V168.438H71.3359L71.5469 169.609H71.6094C71.8542 169.193 72.1979 168.867 72.6406 168.633C73.0885 168.398 73.5885 168.281 74.1406 168.281C75.4792 168.281 76.3542 168.766 76.7656 169.734H76.8281C77.0833 169.286 77.4531 168.932 77.9375 168.672C78.4219 168.411 78.974 168.281 79.5938 168.281C80.5625 168.281 81.2865 168.531 81.7656 169.031C82.25 169.526 82.4922 170.32 82.4922 171.414V177H81.1953ZM95.1875 177V171.461C95.1875 170.763 95.0286 170.242 94.7109 169.898C94.3932 169.555 93.8958 169.383 93.2188 169.383C92.3229 169.383 91.6667 169.625 91.25 170.109C90.8333 170.594 90.625 171.393 90.625 172.508V177H89.3281V168.438H90.3828L90.5938 169.609H90.6562C90.9219 169.188 91.2943 168.862 91.7734 168.633C92.2526 168.398 92.7865 168.281 93.375 168.281C94.4062 168.281 95.1823 168.531 95.7031 169.031C96.224 169.526 96.4844 170.32 96.4844 171.414V177H95.1875ZM100.375 168.438V173.992C100.375 174.69 100.534 175.211 100.852 175.555C101.169 175.898 101.667 176.07 102.344 176.07C103.24 176.07 103.893 175.826 104.305 175.336C104.721 174.846 104.93 174.047 104.93 172.938V168.438H106.227V177H105.156L104.969 175.852H104.898C104.633 176.273 104.263 176.596 103.789 176.82C103.32 177.044 102.784 177.156 102.18 177.156C101.138 177.156 100.357 176.909 99.8359 176.414C99.3203 175.919 99.0625 175.128 99.0625 174.039V168.438H100.375ZM119.898 177V171.43C119.898 170.747 119.753 170.237 119.461 169.898C119.169 169.555 118.716 169.383 118.102 169.383C117.294 169.383 116.698 169.615 116.312 170.078C115.927 170.542 115.734 171.255 115.734 172.219V177H114.438V171.43C114.438 170.747 114.292 170.237 114 169.898C113.708 169.555 113.253 169.383 112.633 169.383C111.82 169.383 111.224 169.628 110.844 170.117C110.469 170.602 110.281 171.398 110.281 172.508V177H108.984V168.438H110.039L110.25 169.609H110.312C110.557 169.193 110.901 168.867 111.344 168.633C111.792 168.398 112.292 168.281 112.844 168.281C114.182 168.281 115.057 168.766 115.469 169.734H115.531C115.786 169.286 116.156 168.932 116.641 168.672C117.125 168.411 117.677 168.281 118.297 168.281C119.266 168.281 119.99 168.531 120.469 169.031C120.953 169.526 121.195 170.32 121.195 171.414V177H119.898ZM127.859 168.297C128.984 168.297 129.857 168.682 130.477 169.453C131.102 170.219 131.414 171.305 131.414 172.711C131.414 174.117 131.099 175.211 130.469 175.992C129.844 176.768 128.974 177.156 127.859 177.156C127.302 177.156 126.792 177.055 126.328 176.852C125.87 176.643 125.484 176.326 125.172 175.898H125.078L124.805 177H123.875V164.844H125.172V167.797C125.172 168.458 125.151 169.052 125.109 169.578H125.172C125.776 168.724 126.672 168.297 127.859 168.297ZM127.672 169.383C126.786 169.383 126.148 169.638 125.758 170.148C125.367 170.654 125.172 171.508 125.172 172.711C125.172 173.914 125.372 174.776 125.773 175.297C126.174 175.812 126.818 176.07 127.703 176.07C128.5 176.07 129.094 175.781 129.484 175.203C129.875 174.62 130.07 173.784 130.07 172.695C130.07 171.581 129.875 170.75 129.484 170.203C129.094 169.656 128.49 169.383 127.672 169.383ZM137.305 177.156C136.039 177.156 135.039 176.771 134.305 176C133.576 175.229 133.211 174.159 133.211 172.789C133.211 171.409 133.549 170.312 134.227 169.5C134.909 168.688 135.823 168.281 136.969 168.281C138.042 168.281 138.891 168.635 139.516 169.344C140.141 170.047 140.453 170.977 140.453 172.133V172.953H134.555C134.581 173.958 134.833 174.721 135.312 175.242C135.797 175.763 136.477 176.023 137.352 176.023C138.273 176.023 139.185 175.831 140.086 175.445V176.602C139.628 176.799 139.193 176.94 138.781 177.023C138.375 177.112 137.883 177.156 137.305 177.156ZM136.953 169.367C136.266 169.367 135.716 169.591 135.305 170.039C134.898 170.487 134.659 171.107 134.586 171.898H139.062C139.062 171.081 138.88 170.456 138.516 170.023C138.151 169.586 137.63 169.367 136.953 169.367ZM146.578 168.281C146.958 168.281 147.299 168.312 147.602 168.375L147.422 169.578C147.068 169.5 146.755 169.461 146.484 169.461C145.792 169.461 145.198 169.742 144.703 170.305C144.214 170.867 143.969 171.568 143.969 172.406V177H142.672V168.438H143.742L143.891 170.023H143.953C144.271 169.466 144.654 169.036 145.102 168.734C145.549 168.432 146.042 168.281 146.578 168.281ZM160.367 168.438V169.258L158.781 169.445C158.927 169.628 159.057 169.867 159.172 170.164C159.286 170.456 159.344 170.786 159.344 171.156C159.344 171.995 159.057 172.664 158.484 173.164C157.911 173.664 157.125 173.914 156.125 173.914C155.87 173.914 155.63 173.893 155.406 173.852C154.854 174.143 154.578 174.51 154.578 174.953C154.578 175.188 154.674 175.362 154.867 175.477C155.06 175.586 155.391 175.641 155.859 175.641H157.375C158.302 175.641 159.013 175.836 159.508 176.227C160.008 176.617 160.258 177.185 160.258 177.93C160.258 178.878 159.878 179.599 159.117 180.094C158.357 180.594 157.247 180.844 155.789 180.844C154.669 180.844 153.805 180.635 153.195 180.219C152.591 179.802 152.289 179.214 152.289 178.453C152.289 177.932 152.456 177.482 152.789 177.102C153.122 176.721 153.591 176.464 154.195 176.328C153.977 176.229 153.792 176.076 153.641 175.867C153.495 175.659 153.422 175.417 153.422 175.141C153.422 174.828 153.505 174.555 153.672 174.32C153.839 174.086 154.102 173.859 154.461 173.641C154.018 173.458 153.656 173.148 153.375 172.711C153.099 172.273 152.961 171.773 152.961 171.211C152.961 170.273 153.242 169.552 153.805 169.047C154.367 168.536 155.164 168.281 156.195 168.281C156.643 168.281 157.047 168.333 157.406 168.438H160.367ZM153.539 178.438C153.539 178.901 153.734 179.253 154.125 179.492C154.516 179.732 155.076 179.852 155.805 179.852C156.893 179.852 157.698 179.688 158.219 179.359C158.745 179.036 159.008 178.596 159.008 178.039C159.008 177.576 158.865 177.253 158.578 177.07C158.292 176.893 157.753 176.805 156.961 176.805H155.406C154.818 176.805 154.359 176.945 154.031 177.227C153.703 177.508 153.539 177.911 153.539 178.438ZM154.242 171.18C154.242 171.779 154.411 172.232 154.75 172.539C155.089 172.846 155.56 173 156.164 173C157.43 173 158.062 172.385 158.062 171.156C158.062 169.87 157.422 169.227 156.141 169.227C155.531 169.227 155.062 169.391 154.734 169.719C154.406 170.047 154.242 170.534 154.242 171.18ZM165.742 177.156C164.477 177.156 163.477 176.771 162.742 176C162.013 175.229 161.648 174.159 161.648 172.789C161.648 171.409 161.987 170.312 162.664 169.5C163.346 168.688 164.26 168.281 165.406 168.281C166.479 168.281 167.328 168.635 167.953 169.344C168.578 170.047 168.891 170.977 168.891 172.133V172.953H162.992C163.018 173.958 163.271 174.721 163.75 175.242C164.234 175.763 164.914 176.023 165.789 176.023C166.711 176.023 167.622 175.831 168.523 175.445V176.602C168.065 176.799 167.63 176.94 167.219 177.023C166.812 177.112 166.32 177.156 165.742 177.156ZM165.391 169.367C164.703 169.367 164.154 169.591 163.742 170.039C163.336 170.487 163.096 171.107 163.023 171.898H167.5C167.5 171.081 167.318 170.456 166.953 170.023C166.589 169.586 166.068 169.367 165.391 169.367ZM176.969 177V171.461C176.969 170.763 176.81 170.242 176.492 169.898C176.174 169.555 175.677 169.383 175 169.383C174.104 169.383 173.448 169.625 173.031 170.109C172.615 170.594 172.406 171.393 172.406 172.508V177H171.109V168.438H172.164L172.375 169.609H172.438C172.703 169.188 173.076 168.862 173.555 168.633C174.034 168.398 174.568 168.281 175.156 168.281C176.188 168.281 176.964 168.531 177.484 169.031C178.005 169.526 178.266 170.32 178.266 171.414V177H176.969ZM184.555 177.156C183.289 177.156 182.289 176.771 181.555 176C180.826 175.229 180.461 174.159 180.461 172.789C180.461 171.409 180.799 170.312 181.477 169.5C182.159 168.688 183.073 168.281 184.219 168.281C185.292 168.281 186.141 168.635 186.766 169.344C187.391 170.047 187.703 170.977 187.703 172.133V172.953H181.805C181.831 173.958 182.083 174.721 182.562 175.242C183.047 175.763 183.727 176.023 184.602 176.023C185.523 176.023 186.435 175.831 187.336 175.445V176.602C186.878 176.799 186.443 176.94 186.031 177.023C185.625 177.112 185.133 177.156 184.555 177.156ZM184.203 169.367C183.516 169.367 182.966 169.591 182.555 170.039C182.148 170.487 181.909 171.107 181.836 171.898H186.312C186.312 171.081 186.13 170.456 185.766 170.023C185.401 169.586 184.88 169.367 184.203 169.367ZM193.828 168.281C194.208 168.281 194.549 168.312 194.852 168.375L194.672 169.578C194.318 169.5 194.005 169.461 193.734 169.461C193.042 169.461 192.448 169.742 191.953 170.305C191.464 170.867 191.219 171.568 191.219 172.406V177H189.922V168.438H190.992L191.141 170.023H191.203C191.521 169.466 191.904 169.036 192.352 168.734C192.799 168.432 193.292 168.281 193.828 168.281ZM201.719 177L201.461 175.781H201.398C200.971 176.318 200.544 176.682 200.117 176.875C199.695 177.062 199.167 177.156 198.531 177.156C197.682 177.156 197.016 176.938 196.531 176.5C196.052 176.062 195.812 175.44 195.812 174.633C195.812 172.904 197.195 171.997 199.961 171.914L201.414 171.867V171.336C201.414 170.664 201.268 170.169 200.977 169.852C200.69 169.529 200.229 169.367 199.594 169.367C198.88 169.367 198.073 169.586 197.172 170.023L196.773 169.031C197.195 168.802 197.656 168.622 198.156 168.492C198.661 168.362 199.167 168.297 199.672 168.297C200.693 168.297 201.448 168.523 201.938 168.977C202.432 169.43 202.68 170.156 202.68 171.156V177H201.719ZM198.789 176.086C199.596 176.086 200.229 175.865 200.688 175.422C201.151 174.979 201.383 174.359 201.383 173.562V172.789L200.086 172.844C199.055 172.88 198.31 173.042 197.852 173.328C197.398 173.609 197.172 174.049 197.172 174.648C197.172 175.117 197.312 175.474 197.594 175.719C197.88 175.964 198.279 176.086 198.789 176.086ZM208.125 176.086C208.354 176.086 208.576 176.07 208.789 176.039C209.003 176.003 209.172 175.966 209.297 175.93V176.922C209.156 176.99 208.948 177.044 208.672 177.086C208.401 177.133 208.156 177.156 207.938 177.156C206.281 177.156 205.453 176.284 205.453 174.539V169.445H204.227V168.82L205.453 168.281L206 166.453H206.75V168.438H209.234V169.445H206.75V174.484C206.75 175 206.872 175.396 207.117 175.672C207.362 175.948 207.698 176.086 208.125 176.086ZM218.406 172.711C218.406 174.107 218.055 175.198 217.352 175.984C216.648 176.766 215.677 177.156 214.438 177.156C213.672 177.156 212.992 176.977 212.398 176.617C211.805 176.258 211.346 175.742 211.023 175.07C210.701 174.398 210.539 173.612 210.539 172.711C210.539 171.315 210.888 170.229 211.586 169.453C212.284 168.672 213.253 168.281 214.492 168.281C215.69 168.281 216.641 168.68 217.344 169.477C218.052 170.273 218.406 171.352 218.406 172.711ZM211.883 172.711C211.883 173.805 212.102 174.638 212.539 175.211C212.977 175.784 213.62 176.07 214.469 176.07C215.318 176.07 215.961 175.786 216.398 175.219C216.841 174.646 217.062 173.81 217.062 172.711C217.062 171.622 216.841 170.797 216.398 170.234C215.961 169.667 215.312 169.383 214.453 169.383C213.604 169.383 212.964 169.661 212.531 170.219C212.099 170.776 211.883 171.607 211.883 172.711ZM224.594 168.281C224.974 168.281 225.315 168.312 225.617 168.375L225.438 169.578C225.083 169.5 224.771 169.461 224.5 169.461C223.807 169.461 223.214 169.742 222.719 170.305C222.229 170.867 221.984 171.568 221.984 172.406V177H220.688V168.438H221.758L221.906 170.023H221.969C222.286 169.466 222.669 169.036 223.117 168.734C223.565 168.432 224.057 168.281 224.594 168.281Z" fill="#343434"/>
<g clip-path="url(#clip0)">
<path d="M109.402 27.1045C109.731 27.1045 110.054 26.9707 110.286 26.7383C110.519 26.5054 110.652 26.1831 110.652 25.8545C110.652 25.5254 110.519 25.2031 110.286 24.9707C110.054 24.7383 109.731 24.6045 109.402 24.6045C109.072 24.6045 108.751 24.7383 108.519 24.9707C108.286 25.2031 108.152 25.5254 108.152 25.8545C108.152 26.1831 108.286 26.5054 108.519 26.7383C108.751 26.9707 109.074 27.1045 109.402 27.1045Z" fill="#346CD9"/>
<path d="M127.309 25.4492C127.075 25.2168 126.754 25.083 126.424 25.083C126.095 25.083 125.772 25.2168 125.54 25.4492C125.308 25.6816 125.174 26.0044 125.174 26.333C125.174 26.6616 125.308 26.9844 125.54 27.2168C125.772 27.4492 126.095 27.583 126.424 27.583C126.754 27.583 127.075 27.4492 127.309 27.2168C127.541 26.9844 127.674 26.6631 127.674 26.333C127.674 26.0044 127.541 25.6816 127.309 25.4492Z" fill="#346CD9"/>
<path d="M130.8 23.208C131.129 23.208 131.451 23.0742 131.684 22.8418C131.916 22.6094 132.049 22.2866 132.049 21.958C132.049 21.6294 131.916 21.3066 131.684 21.0742C131.451 20.8418 131.129 20.708 130.8 20.708C130.47 20.708 130.147 20.8418 129.915 21.0742C129.683 21.3066 129.549 21.6294 129.549 21.958C129.549 22.2866 129.683 22.6094 129.915 22.8418C130.147 23.0742 130.47 23.208 130.8 23.208Z" fill="#346CD9"/>
<path d="M153.25 30.7495H149.762L155.902 24.6098C156.61 23.9013 157 22.9594 157 21.958C157 20.9565 156.61 20.0146 155.902 19.3066L150.333 13.7378C149.845 13.25 149.054 13.25 148.565 13.7378C147.857 14.4463 146.915 14.8364 145.914 14.8364C144.912 14.8364 143.971 14.4463 143.262 13.7378C142.554 13.0298 142.164 12.0879 142.164 11.0864C142.164 10.0845 142.554 9.14305 143.262 8.43455C143.496 8.20018 143.628 7.88231 143.628 7.55077C143.628 7.21922 143.496 6.90135 143.262 6.66698L137.694 1.09863C136.985 0.390136 136.044 0 135.042 0C134.04 0 133.099 0.390136 132.391 1.09863L111.745 21.7436C111.257 22.2314 111.257 23.0229 111.745 23.5112C112.233 23.9995 113.025 23.9995 113.513 23.5112L134.158 2.86621C134.394 2.62988 134.708 2.5 135.042 2.5C135.376 2.5 135.69 2.62988 135.926 2.86621L140.699 7.63866C140.025 8.65233 139.664 9.84178 139.664 11.0864C139.664 12.7558 140.314 14.3252 141.495 15.5058C142.675 16.686 144.245 17.3364 145.914 17.3364C147.159 17.3364 148.348 16.9751 149.362 16.3017L154.134 21.0742C154.621 21.5615 154.621 22.3545 154.134 22.8418L146.226 30.7495H140.746L144.853 26.6425C145.341 26.1542 145.341 25.3627 144.853 24.875L132.125 12.1469C131.637 11.6587 130.846 11.6587 130.357 12.1469L111.755 30.7495H96.75C94.6821 30.7495 93 32.4316 93 34.4994V42.3744C93 43.0644 93.5596 43.6244 94.25 43.6244C96.3179 43.6244 98 45.3066 98 47.3744C98 49.4418 96.3179 51.1244 94.25 51.1244C93.5596 51.1244 93 51.684 93 52.3744V60.2494C93 62.3168 94.6821 63.9994 96.75 63.9994H153.25C155.318 63.9994 157 62.3168 157 60.2494V52.3744C157 51.684 156.44 51.1244 155.75 51.1244C153.682 51.1244 152 49.4418 152 47.3744C152 45.3066 153.682 43.6244 155.75 43.6244C156.44 43.6244 157 43.0644 157 42.3744V34.4994C157 32.4316 155.318 30.7495 153.25 30.7495ZM131.241 14.7983L142.202 25.7587L137.211 30.7495H132.261L135.926 27.0844C136.414 26.5966 136.414 25.8051 135.926 25.3168C135.438 24.8286 134.646 24.8286 134.158 25.3168L128.726 30.749H115.29L131.241 14.7983ZM154.5 41.2499C151.651 41.8305 149.5 44.3559 149.5 47.3744C149.5 50.3925 151.651 52.9179 154.5 53.4989V60.2494C154.5 60.9384 153.939 61.4994 153.25 61.4994H96.75C96.0605 61.4994 95.5 60.9384 95.5 60.2494V53.4989C98.3491 52.9179 100.5 50.3925 100.5 47.3744C100.5 44.3559 98.3491 41.831 95.5 41.2499V34.4994C95.5 33.81 96.0605 33.2494 96.75 33.2494H153.25C153.939 33.2494 154.5 33.81 154.5 34.4994V41.2499Z" fill="#FF2E63"/>
<path d="M119.696 45.2582C119.929 45.0253 120.062 44.703 120.062 44.3744C120.062 44.0453 119.929 43.723 119.696 43.4906C119.464 43.2582 119.141 43.1244 118.812 43.1244C118.484 43.1244 118.161 43.2582 117.929 43.4906C117.696 43.723 117.562 44.0453 117.562 44.3744C117.562 44.703 117.696 45.0253 117.929 45.2582C118.161 45.4906 118.484 45.6244 118.812 45.6244C119.141 45.6244 119.464 45.4906 119.696 45.2582Z" fill="#346CD9"/>
<path d="M132.071 45.2582C132.304 45.0253 132.437 44.703 132.437 44.3744C132.437 44.0453 132.304 43.723 132.071 43.4906C131.839 43.2582 131.516 43.1244 131.187 43.1244C130.859 43.1244 130.536 43.2582 130.304 43.4906C130.071 43.723 129.937 44.0453 129.937 44.3744C129.937 44.703 130.071 45.0253 130.304 45.2582C130.536 45.4906 130.859 45.6244 131.187 45.6244C131.516 45.6244 131.839 45.4906 132.071 45.2582Z" fill="#346CD9"/>
<path d="M125.884 45.2582C126.116 45.0253 126.25 44.703 126.25 44.3744C126.25 44.0453 126.116 43.723 125.884 43.4906C125.651 43.2582 125.329 43.1244 125 43.1244C124.671 43.1244 124.349 43.2582 124.116 43.4906C123.884 43.723 123.75 44.0453 123.75 44.3744C123.75 44.703 123.884 45.0253 124.116 45.2582C124.349 45.4906 124.671 45.6244 125 45.6244C125.329 45.6244 125.651 45.4906 125.884 45.2582Z" fill="#346CD9"/>
<path d="M112.625 45.6244C112.954 45.6244 113.276 45.4906 113.509 45.2582C113.741 45.0253 113.875 44.703 113.875 44.3744C113.875 44.0453 113.741 43.723 113.509 43.4906C113.276 43.2582 112.954 43.1244 112.625 43.1244C112.296 43.1244 111.974 43.2582 111.741 43.4906C111.509 43.723 111.375 44.0453 111.375 44.3744C111.375 44.703 111.509 45.0253 111.741 45.2582C111.974 45.4906 112.296 45.6244 112.625 45.6244Z" fill="#346CD9"/>
<path d="M138.259 45.2582C138.491 45.0253 138.625 44.703 138.625 44.3744C138.625 44.0453 138.491 43.723 138.259 43.4906C138.026 43.2582 137.704 43.1244 137.375 43.1244C137.046 43.1244 136.724 43.2582 136.491 43.4906C136.259 43.723 136.125 44.0453 136.125 44.3744C136.125 44.703 136.259 45.0253 136.491 45.2582C136.724 45.4906 137.046 45.6244 137.375 45.6244C137.704 45.6244 138.026 45.4906 138.259 45.2582Z" fill="#346CD9"/>
<path d="M112.625 51.6244H137.375C138.065 51.6244 138.625 51.0643 138.625 50.3744C138.625 49.684 138.065 49.1244 137.375 49.1244H112.625C111.935 49.1244 111.375 49.684 111.375 50.3744C111.375 51.0643 111.935 51.6244 112.625 51.6244Z" fill="#FF2E63"/>
<path d="M117.165 55.1244C116.836 55.1244 116.514 55.2582 116.281 55.4906C116.049 55.723 115.915 56.0453 115.915 56.3744C115.915 56.703 116.049 57.0253 116.281 57.2582C116.514 57.4906 116.836 57.6244 117.165 57.6244C117.495 57.6244 117.816 57.4906 118.049 57.2582C118.283 57.0253 118.415 56.703 118.415 56.3744C118.415 56.0453 118.283 55.723 118.049 55.4906C117.816 55.2582 117.495 55.1244 117.165 55.1244Z" fill="#346CD9"/>
<path d="M144 37.1244H106C105.31 37.1244 104.75 37.684 104.75 38.3744V56.3744C104.75 57.0643 105.31 57.6244 106 57.6244H111.207C111.897 57.6244 112.457 57.0643 112.457 56.3744C112.457 55.6839 111.897 55.1244 111.207 55.1244H107.25V39.6244H142.75V55.1244H122.457C121.767 55.1244 121.207 55.6839 121.207 56.3744C121.207 57.0643 121.767 57.6244 122.457 57.6244H144C144.69 57.6244 145.25 57.0643 145.25 56.3744V38.3744C145.25 37.684 144.69 37.1244 144 37.1244Z" fill="#FF2E63"/>
</g>
<defs>
<clipPath id="clip0">
<rect width="64" height="63.9999" fill="white" transform="translate(93)"/>
</clipPath>
</defs>
</svg>
