<svg width="64" height="64" viewBox="0 0 64 64" fill="none" xmlns="http://www.w3.org/2000/svg">
<g clip-path="url(#clip0)">
<path d="M58.5519 19.7996L44.6454 17.3363L37.7613 4.67309C37.1468 3.54383 36.2211 2.62645 35.0843 2.0202C31.8899 0.316319 27.9049 1.52895 26.2007 4.72409L19.5611 17.188L17.0677 17.6514C16.389 17.7776 15.941 18.43 16.0671 19.1088C16.1932 19.7875 16.8461 20.235 17.5245 20.1094L19.8338 19.6803L21.5196 22.0007C19.4515 23.7082 17.8126 25.9172 16.7882 28.4388L3.18715 24.0195C3.3484 23.7794 3.53566 23.5543 3.74903 23.3489C4.36091 22.7604 5.12604 22.3828 5.96179 22.2573C5.97604 22.2552 5.99041 22.2528 6.00466 22.25L6.46254 22.1648C7.14129 22.0385 7.58917 21.386 7.46279 20.7073C7.33642 20.0284 6.68354 19.5805 6.00529 19.707L5.56779 19.7884C4.22541 19.9948 2.99765 20.6026 2.0159 21.547C0.75077 22.7639 0.035267 24.4008 0.00126682 26.156C-0.0327333 27.9113 0.618644 29.5748 1.83665 30.8408L11.6454 41.0144L9.82518 54.8915C9.5433 56.3104 9.7293 57.7477 10.3642 59.0513C11.5027 61.3894 13.8522 62.7517 16.2932 62.7517C17.2592 62.7517 18.2393 62.5384 19.1647 62.0878L31.8553 55.9105L44.8746 62.1128C46.0276 62.6632 47.3182 62.8599 48.6071 62.6816C52.198 62.1849 54.7151 58.8595 54.2183 55.2668L52.2628 41.2736L61.9397 31.0666C62.9774 30.0868 63.6553 28.8253 63.9013 27.416C64.5255 23.8402 62.1244 20.4233 58.5519 19.7996ZM60.6359 23.7759L46.8391 28.2588C45.8773 25.9705 44.4061 23.9475 42.5683 22.3317L44.3863 19.8294L58.1189 22.2619C59.1566 22.443 60.0347 23.0035 60.6359 23.7759ZM49.8118 41.7976L51.742 55.611C51.8847 56.6425 51.6255 57.6384 51.0853 58.441L42.5772 46.7306C44.4059 45.1201 45.8713 43.1065 46.8317 40.8294L49.8118 41.7976ZM35.5651 5.86759L42.3594 18.3659L40.5703 20.8284C38.3795 19.4298 35.833 18.5413 33.0993 18.3325V3.90108C33.3744 3.97883 33.6454 4.08608 33.9078 4.22596C34.612 4.60159 35.1853 5.16946 35.5651 5.86759ZM21.8521 18.2048L28.4069 5.90009C28.8966 4.98196 29.691 4.32858 30.5993 3.99708V18.3326C28.0447 18.528 25.6542 19.3176 23.5644 20.5616L21.8521 18.2048ZM31.8504 20.785C39.4322 20.785 45.6004 26.9533 45.6004 34.5351C45.6004 42.1169 39.4322 48.2851 31.8504 48.2851C24.2686 48.2851 18.1003 42.1169 18.1003 34.5351C18.1003 26.9533 24.2686 20.785 31.8504 20.785ZM13.0664 58.6842C12.8931 58.4624 12.7398 58.2198 12.6118 57.9568C12.2138 57.1394 12.1002 56.2377 12.2832 55.3492C12.2894 55.3195 12.2944 55.2895 12.2983 55.2595L14.0997 41.5251L16.7953 40.6491C17.8187 43.1597 19.4516 45.3594 21.5105 47.0619L13.0664 58.6842ZM3.63741 29.1068C2.93465 28.3763 2.53665 27.4313 2.50278 26.4258L16.0291 30.8208C15.749 32.0142 15.6003 33.2576 15.6003 34.5351C15.6003 35.8193 15.7507 37.069 16.0337 38.268L13.3202 39.1497L3.63741 29.1068ZM18.0702 59.8399C17.1211 60.3022 16.0788 60.3619 15.1378 60.0864L23.5542 48.5024C25.6466 49.7499 28.0407 50.5416 30.5994 50.7374V53.7414L18.0702 59.8399ZM48.2646 60.2051C47.4621 60.3164 46.6617 60.1958 45.9506 59.8562L33.0993 53.734V50.7376C35.8373 50.5286 38.3874 49.6378 40.5804 48.2354L49.1203 59.9897C48.8488 60.0902 48.5629 60.1638 48.2646 60.2051ZM61.4384 26.9859C61.2845 27.8683 60.8577 28.6567 60.2049 29.2661C60.1862 29.2836 60.1681 29.3014 60.1505 29.3201L50.5773 39.4176L47.6208 38.457C47.9334 37.2005 48.1004 35.887 48.1004 34.5351C48.1004 33.1899 47.9351 31.8828 47.6254 30.6319L61.4959 26.1252C61.5069 26.408 61.489 26.696 61.4384 26.9859Z" fill="#FF2E63"/>
<path d="M31.8503 45.7849C38.0537 45.7849 43.1004 40.7381 43.1004 34.5349C43.1004 28.3317 38.0537 23.2849 31.8503 23.2849C25.647 23.2849 20.6003 28.3317 20.6003 34.5349C20.6003 40.7381 25.647 45.7849 31.8503 45.7849ZM31.8503 25.7849C36.6752 25.7849 40.6004 29.7102 40.6004 34.5349C40.6004 39.3596 36.6752 43.2849 31.8503 43.2849C27.0255 43.2849 23.1003 39.3596 23.1003 34.5349C23.1003 29.7102 27.0255 25.7849 31.8503 25.7849Z" fill="#346CD9"/>
<path d="M30.4644 38.2848C29.7741 38.2848 29.2144 38.8446 29.2144 39.5348C29.2144 40.2251 29.7741 40.7848 30.4644 40.7848H33.2361C33.9264 40.7848 34.4861 40.2251 34.4861 39.5348C34.4861 38.8446 33.9264 38.2848 33.2361 38.2848H33.1003V29.5349C33.1003 29.0884 32.862 28.6757 32.4753 28.4524C32.0885 28.2291 31.612 28.2291 31.2253 28.4524L29.8394 29.2526C29.2415 29.5978 29.0366 30.3623 29.3819 30.9601C29.6374 31.4026 30.122 31.6298 30.6003 31.5779V38.2847H30.4644V38.2848Z" fill="#346CD9"/>
<path d="M11.7654 21.1581C12.4556 21.1581 13.0154 20.5983 13.0154 19.9081C13.0154 19.2178 12.4556 18.6581 11.7654 18.6581H11.7644C11.0741 18.6581 10.5149 19.2178 10.5149 19.9081C10.5149 20.5983 11.0751 21.1581 11.7654 21.1581Z" fill="#FF2E63"/>
</g>
<defs>
<clipPath id="clip0">
<rect width="64" height="64" fill="white"/>
</clipPath>
</defs>
</svg>
